<svg width="584" height="584" viewBox="0 0 584 584" fill="none" xmlns="http://www.w3.org/2000/svg">
<rect width="584" height="584" rx="50" fill="#F7F2EA"/>
<path d="M455.75 88H128.18C105.984 88 87.9902 105.994 87.9902 128.19V455.76C87.9902 477.956 105.984 495.95 128.18 495.95H455.75C477.947 495.95 495.94 477.956 495.94 455.76V128.19C495.94 105.994 477.947 88 455.75 88Z" fill="#FFD95F"/>
<path d="M220.95 342.49C220.9 343.45 220.83 344.41 220.74 345.36C219.77 354.97 216.65 364.21 213.94 373.48C210.38 385.65 207.51 398.01 205.34 410.5C202.84 424.86 201.26 439.44 202.01 454C202.57 464.84 204.41 475.57 206.32 486.26C206.66 488.19 207.03 490.18 207.4 492.22C207.63 493.45 207.86 494.7 208.09 495.96H128.43C114.62 495.96 102.42 489.03 95.1299 478.46C97.0299 472.16 98.9599 465.85 100.92 459.54C102.04 455.96 103.16 452.38 104.3 448.79C105.43 445.21 106.58 441.63 107.74 438.05C108.9 434.47 110.06 430.89 111.24 427.32C123.01 391.59 135.78 356.19 149.32 322.17C152.14 315.07 155.15 307.78 160.57 302.4C171.98 291.05 192.13 291.82 204.65 301.94C205.17 302.36 205.67 302.79 206.16 303.23C206.49 303.53 206.81 303.83 207.12 304.13C207.44 304.44 207.74 304.75 208.05 305.06C208.21 305.22 208.36 305.38 208.51 305.54C209.26 306.34 209.98 307.17 210.66 308.02C210.8 308.19 210.94 308.36 211.07 308.54C211.6 309.23 212.12 309.94 212.61 310.67C212.73 310.85 212.86 311.04 212.98 311.22C213.46 311.95 213.92 312.7 214.36 313.46C214.69 314.03 215 314.61 215.31 315.2C216.11 316.76 216.84 318.38 217.48 320.03C217.56 320.24 217.64 320.45 217.71 320.66C218.01 321.49 218.3 322.33 218.57 323.18C218.77 323.82 218.95 324.45 219.13 325.1C219.42 326.18 219.68 327.26 219.9 328.35C220.85 332.99 221.2 337.78 220.97 342.5L220.95 342.49Z" fill="#A88248"/>
<path d="M208.08 496.95C207.61 496.95 207.19 496.61 207.1 496.13L205.33 486.42C203.29 475 201.56 464.68 201.01 454.04C200.35 441.12 201.41 427.22 204.35 410.32C206.53 397.84 209.43 385.35 212.98 373.2C213.41 371.74 213.84 370.29 214.28 368.84C216.57 361.19 218.94 353.28 219.75 345.27C219.85 344.28 219.92 343.35 219.96 342.45C220.03 341.08 220.05 339.68 220.01 338.28C219.94 335.23 219.61 332.19 219.05 329.24C219.02 329.1 219 328.97 218.97 328.86L218.93 328.67C218.93 328.67 218.91 328.6 218.91 328.56L218.8 328.06C218.72 327.68 218.64 327.31 218.55 326.94C218.42 326.4 218.29 325.88 218.15 325.35L218 324.79C217.91 324.46 217.81 324.14 217.71 323.81L217.67 323.68C217.65 323.61 217.63 323.54 217.6 323.47L217.4 322.85C217.2 322.24 216.98 321.62 216.75 320.99L216.52 320.36C215.89 318.73 215.18 317.14 214.4 315.64C214.26 315.37 214.12 315.11 213.98 314.85C213.81 314.55 213.65 314.24 213.47 313.94C213.02 313.15 212.58 312.44 212.13 311.76C212.01 311.57 211.89 311.39 211.77 311.22C211.29 310.51 210.79 309.81 210.27 309.14C210.14 308.97 210.01 308.8 209.88 308.64C209.54 308.22 209.21 307.81 208.86 307.41C208.68 307.19 208.51 307 208.33 306.81C208.15 306.61 207.98 306.42 207.8 306.23C207.63 306.05 207.49 305.9 207.34 305.75C207.12 305.52 206.91 305.31 206.7 305.1L206.42 304.83C206.11 304.53 205.8 304.24 205.48 303.96C205.29 303.79 205.09 303.62 204.9 303.45L204.61 303.2C204.41 303.03 204.21 302.87 204.01 302.7C191.35 292.46 171.78 292.63 161.27 303.09C155.83 308.5 152.86 315.95 150.25 322.53C149.27 325 148.29 327.49 147.31 329.97C146.73 331.45 146.15 332.92 145.58 334.39C145.26 335.2 144.95 336.01 144.64 336.82C142.53 342.26 140.39 347.86 138.29 353.47C137.76 354.88 137.23 356.3 136.7 357.71C136.5 358.24 136.3 358.77 136.1 359.3C135.53 360.84 134.96 362.38 134.39 363.92C131.79 370.98 129.17 378.21 126.61 385.43C126.04 387.05 125.46 388.67 124.9 390.29C124.28 392.06 123.66 393.83 123.04 395.6C121.01 401.43 119.02 407.21 117.15 412.76C116.79 413.83 116.43 414.9 116.07 415.96C115.82 416.68 115.58 417.4 115.34 418.12C114.87 419.5 114.42 420.89 113.96 422.27C113.37 424.05 112.77 425.84 112.19 427.62C111.01 431.19 109.85 434.77 108.69 438.35C107.53 441.92 106.38 445.51 105.25 449.08C104.11 452.66 102.98 456.24 101.87 459.82C100.89 462.97 99.92 466.12 98.95 469.27C98.47 470.85 97.99 472.42 97.51 474C97.08 475.4 96.66 476.81 96.23 478.21L96.07 478.72C95.91 479.25 95.35 479.55 94.82 479.39C94.29 479.23 93.99 478.67 94.15 478.14L94.3 477.63C94.72 476.22 95.15 474.82 95.58 473.41C96.06 471.83 96.54 470.26 97.02 468.68C97.99 465.53 98.96 462.37 99.94 459.22C101.05 455.63 102.18 452.05 103.32 448.47C104.45 444.89 105.6 441.3 106.76 437.73C107.92 434.15 109.08 430.57 110.26 426.99C110.85 425.2 111.44 423.42 112.03 421.63C112.49 420.25 112.95 418.86 113.41 417.48C113.65 416.76 113.89 416.03 114.14 415.31C114.49 414.25 114.86 413.18 115.22 412.11C117.1 406.55 119.08 400.77 121.12 394.93C121.74 393.16 122.36 391.39 122.98 389.62C123.55 388 124.12 386.38 124.7 384.76C127.26 377.53 129.88 370.29 132.49 363.23C133.06 361.69 133.63 360.15 134.2 358.61C134.4 358.08 134.6 357.55 134.8 357.01C135.32 355.6 135.85 354.18 136.39 352.77C138.5 347.16 140.63 341.55 142.75 336.1C143.06 335.29 143.38 334.47 143.69 333.66C144.27 332.18 144.84 330.71 145.42 329.23C146.39 326.74 147.37 324.26 148.36 321.78C150.91 315.36 154.09 307.37 159.83 301.67C171.03 290.53 191.82 290.29 205.24 301.15C205.46 301.32 205.67 301.5 205.88 301.68L206.19 301.95C206.39 302.12 206.59 302.3 206.8 302.48C207.03 302.69 207.27 302.91 207.5 303.12L207.79 303.4C208.12 303.71 208.44 304.03 208.75 304.36C208.9 304.51 209.06 304.68 209.22 304.85C209.43 305.07 209.61 305.27 209.79 305.47C209.97 305.67 210.17 305.89 210.35 306.11C210.7 306.51 211.06 306.94 211.41 307.38C211.55 307.55 211.69 307.74 211.83 307.92C212.37 308.62 212.9 309.35 213.4 310.1C213.52 310.28 213.65 310.48 213.78 310.67C214.25 311.38 214.71 312.13 215.18 312.95C215.36 313.26 215.54 313.58 215.71 313.9C215.86 314.18 216.01 314.46 216.16 314.74C216.97 316.3 217.71 317.95 218.37 319.66L218.45 319.87C218.51 320.02 218.56 320.17 218.61 320.32C218.92 321.15 219.21 322 219.46 322.82L219.7 323.46L219.66 323.49C219.79 323.91 219.91 324.33 220.02 324.76L220.25 325.33L220.18 325.4C220.27 325.76 220.36 326.13 220.45 326.49C220.57 327 220.69 327.51 220.79 328.03L221.01 328.53L220.91 328.64C220.92 328.69 220.93 328.74 220.94 328.8C221.54 331.91 221.88 335.06 221.95 338.23C221.99 339.68 221.97 341.14 221.9 342.55C221.86 343.48 221.79 344.44 221.68 345.47C220.85 353.67 218.46 361.68 216.14 369.42C215.71 370.87 215.27 372.32 214.85 373.77C211.32 385.85 208.43 398.27 206.27 410.68C203.35 427.43 202.3 441.18 202.95 453.95C203.49 464.48 205.21 474.73 207.24 486.08L209.01 495.78C209.11 496.32 208.75 496.84 208.21 496.95C208.15 496.96 208.09 496.97 208.03 496.97L208.08 496.95Z" fill="#17000B"/>
<path d="M247.14 238.47C242.25 235.31 236.88 232.56 231.07 232.05C225.26 231.54 218.95 233.65 215.73 238.51C214.32 240.64 213.57 243.16 213.21 245.69C212.18 252.84 214.7 261.01 221.02 264.51C223.3 265.77 225.89 266.35 228.47 266.64C233.87 267.26 239.41 266.7 244.58 265C245.73 255.77 247.4 238.64 247.14 238.47Z" fill="#17000B"/>
<path d="M232.74 267.88C231.27 267.88 229.81 267.8 228.36 267.63C225.13 267.26 222.64 266.54 220.53 265.38C213.43 261.44 211.24 252.34 212.22 245.54C212.65 242.53 213.55 239.98 214.9 237.95C218.08 233.16 224.46 230.46 231.16 231.05C237.68 231.63 243.41 234.87 247.68 237.63C248.33 238.05 248.38 238.09 247.38 248.43C246.8 254.41 246.11 260.81 245.57 265.12L245.49 265.75L244.89 265.95C240.99 267.23 236.86 267.88 232.74 267.88ZM229.32 232.97C223.97 232.97 219.08 235.26 216.56 239.06C215.38 240.84 214.58 243.12 214.19 245.82C213.31 251.96 215.22 260.15 221.49 263.62C223.36 264.66 225.61 265.3 228.57 265.64C233.6 266.22 238.8 265.73 243.65 264.24C244.71 255.58 246.06 241.72 246.15 239.03C242.13 236.46 236.84 233.56 230.97 233.04C230.41 232.99 229.86 232.97 229.31 232.97H229.32Z" fill="#17000B"/>
<path d="M477.46 281.39C465.25 267.51 452.63 252.84 448.47 234.83C446.97 228.33 446.64 221.62 446.13 214.97C445.26 203.55 443.85 192.16 441.9 180.87C439.91 169.35 437.33 157.81 432.27 147.28C424.18 130.44 409.71 116.75 392.44 109.62C375.17 102.49 355.29 101.89 337.63 107.98C315.38 115.65 292.57 131.49 281.81 147.59C278.08 153.17 277.51 160.5 278.72 167.1C279.7 172.47 282.14 177.46 283.68 182.7C285.22 187.94 285.8 193.85 283.19 198.65C281.29 202.15 277.95 204.6 274.7 206.91C268.78 211.11 262.79 215.23 257.06 219.69C252.07 223.57 247.22 227.77 243.62 232.96C233.76 247.2 235.1 267.1 243.39 282.3C251.68 297.5 265.25 309.75 280.74 317.51C314.73 334.54 354.52 318.91 374.02 312.91C404 303.69 475.88 282.31 477.46 281.38V281.39Z" fill="#AD8145"/>
<path d="M315.6 326.25C303.86 326.25 291.78 324.16 280.3 318.41C264.02 310.25 250.61 297.6 242.52 282.79C233.25 265.81 233.37 246.03 242.8 232.4C246.61 226.9 251.83 222.49 256.45 218.91C261.06 215.33 265.89 211.91 270.57 208.61C271.75 207.77 272.94 206.94 274.12 206.1C276.94 204.1 280.44 201.61 282.31 198.18C284.41 194.31 284.55 189.2 282.72 182.99C282.14 181.02 281.41 179.04 280.71 177.13C279.55 173.97 278.35 170.7 277.73 167.29C276.9 162.78 276.23 154.14 280.97 147.04C291.66 131.05 314.29 114.97 337.3 107.04C355.15 100.89 375.38 101.49 392.82 108.7C410.28 115.92 424.99 129.82 433.17 146.85C438.5 157.94 441.07 170.19 442.89 180.7C444.84 191.98 446.26 203.48 447.13 214.89L447.33 217.55C447.74 223.2 448.16 229.04 449.45 234.61C453.65 252.81 466.7 267.65 478.22 280.74L479.02 281.65L477.98 282.26C477.01 282.83 459.01 288.29 421.03 299.74C403.73 304.96 385.83 310.35 374.32 313.89C372.54 314.44 370.58 315.07 368.48 315.75C355.01 320.09 335.8 326.27 315.6 326.27V326.25ZM362.81 104.81C354.36 104.81 345.91 106.18 337.95 108.92C315.33 116.72 293.1 132.48 282.64 148.14C278.28 154.66 278.93 162.7 279.7 166.92C280.29 170.16 281.46 173.35 282.59 176.43C283.3 178.37 284.04 180.38 284.64 182.41C286.63 189.15 286.44 194.77 284.07 199.12C281.99 202.96 278.27 205.6 275.28 207.72C274.1 208.56 272.91 209.4 271.72 210.23C267.06 213.52 262.24 216.92 257.67 220.47C253.18 223.96 248.09 228.24 244.44 233.52C235.57 246.33 235.5 265.74 244.27 281.81C252.16 296.27 265.27 308.63 281.19 316.6C311.7 331.89 346.86 320.57 367.86 313.81C369.97 313.13 371.94 312.5 373.73 311.95C385.24 308.41 403.14 303.02 420.45 297.8C443.68 290.8 469.71 282.95 475.75 280.94C464.32 267.94 451.7 253.21 447.5 235.04C446.18 229.33 445.75 223.41 445.34 217.68L445.14 215.03C444.28 203.68 442.86 192.24 440.92 181.03C439.13 170.65 436.59 158.57 431.37 147.7C423.4 131.11 409.07 117.56 392.06 110.53C382.85 106.72 372.83 104.8 362.82 104.8L362.81 104.81Z" fill="#17000B"/>
<path d="M292.38 206.92C291.21 209.91 291.83 213.77 294.47 215.61C296.08 216.74 298.15 216.97 300.11 216.92C307.5 216.73 314.38 213.06 320.27 208.59C322.85 206.63 325.55 203.84 324.91 200.67C324.44 198.38 322.31 196.78 320.12 195.95C311.85 192.81 295.73 198.43 292.39 206.93L292.38 206.92Z" fill="#FDF5DE"/>
<path d="M299.65 217.92C297.22 217.92 295.33 217.43 293.9 216.43C291.07 214.45 290.02 210.21 291.46 206.56C293.09 202.4 297.8 198.5 304.05 196.13C310.04 193.86 316.33 193.43 320.47 195.01C323.44 196.14 325.41 198.13 325.88 200.47C326.48 203.41 324.79 206.41 320.87 209.39C313.52 214.96 306.74 217.76 300.14 217.93C299.98 217.93 299.81 217.93 299.65 217.93V217.92ZM293.31 207.28C292.37 209.67 292.66 213.12 295.04 214.78C296.22 215.61 297.82 215.96 300.08 215.91C306.25 215.75 312.66 213.09 319.66 207.78C322.92 205.31 324.35 202.98 323.92 200.85C323.59 199.22 322.03 197.73 319.75 196.86C312.25 194.01 296.48 199.19 293.31 207.27V207.28Z" fill="#17000B"/>
<path d="M284.77 187.9C284.62 187.9 284.47 187.87 284.33 187.8C283.83 187.56 283.63 186.96 283.87 186.46C286.2 181.7 291.54 176.79 298.17 173.32C305.8 169.33 314.46 167.6 322.55 168.47C323.1 168.53 323.5 169.02 323.44 169.57C323.38 170.12 322.89 170.52 322.34 170.46C304.95 168.6 289.62 179.26 285.67 187.34C285.5 187.69 285.14 187.9 284.77 187.9Z" fill="#17000B"/>
<path d="M256.53 300.93C256.01 300.93 255.56 300.52 255.53 299.99C255.5 299.44 255.92 298.97 256.47 298.93C257.6 298.86 258.85 298.56 260.18 298.04C266.01 295.75 271.04 291.09 274.34 284.9C277.24 279.46 278.8 272.99 278.96 265.67C278.97 265.12 279.4 264.67 279.98 264.69C280.53 264.7 280.97 265.16 280.96 265.71C280.79 273.34 279.16 280.12 276.11 285.84C272.59 292.44 267.19 297.43 260.92 299.9C259.39 300.5 257.94 300.84 256.6 300.92C256.58 300.92 256.56 300.92 256.54 300.92L256.53 300.93Z" fill="#17000B"/>
<path d="M348.92 249.99C348.59 249.99 348.27 249.83 348.08 249.54C340.61 238.09 336.01 223.71 334.41 206.79C332.99 191.79 334.01 176.57 334.99 161.84C335.03 161.29 335.5 160.86 336.05 160.91C336.6 160.95 337.02 161.42 336.98 161.97C336 176.62 334.99 191.76 336.39 206.59C337.96 223.18 342.45 237.26 349.74 248.43C350.04 248.89 349.91 249.51 349.45 249.81C349.28 249.92 349.09 249.97 348.9 249.97L348.92 249.99Z" fill="#17000B"/>
<path d="M429.04 214.98C428.65 214.98 428.27 214.75 428.11 214.36C423.26 202.5 417.43 188.81 409.74 176.41C401.54 163.21 392.05 152.9 381.53 145.77C381.07 145.46 380.95 144.84 381.26 144.38C381.57 143.92 382.19 143.8 382.65 144.11C393.41 151.4 403.09 161.91 411.43 175.35C419.21 187.88 425.07 201.66 429.95 213.59C430.16 214.1 429.91 214.69 429.4 214.89C429.28 214.94 429.15 214.97 429.02 214.97L429.04 214.98Z" fill="#17000B"/>
<path d="M364.72 248.17C364.38 248.17 364.05 248 363.87 247.69C357.95 237.98 354.1 226.88 352.72 215.59C352.65 215.04 353.04 214.54 353.59 214.48C354.13 214.41 354.64 214.8 354.7 215.35C356.04 226.36 359.8 237.18 365.57 246.66C365.86 247.13 365.71 247.75 365.24 248.03C365.08 248.13 364.9 248.18 364.72 248.18V248.17Z" fill="#17000B"/>
<path d="M381.93 239.58C381.93 239.58 381.86 239.58 381.83 239.58C381.47 239.54 381.16 239.32 381.02 238.99C381.01 238.96 380.99 238.93 380.98 238.9C380.59 237.9 372.72 218.41 368.24 208.6C368.01 208.1 368.24 207.5 368.73 207.28C369.23 207.05 369.83 207.28 370.05 207.77C372.48 213.11 375.83 221.09 378.21 226.84C381.08 233.79 382.27 236.65 382.68 237.94C382.74 238.01 382.79 238.09 382.83 238.18L382.76 238.21C382.95 238.87 382.86 238.99 382.73 239.18C382.54 239.44 382.24 239.6 381.92 239.6L381.93 239.58Z" fill="#17000B"/>
<path d="M398.48 231.45C398.11 231.45 397.75 231.24 397.58 230.89C397.56 230.85 397.54 230.8 397.53 230.76C397.07 229.68 389.91 213.53 385.73 204.16C385.5 203.66 385.73 203.06 386.24 202.84C386.74 202.62 387.34 202.84 387.56 203.35C389.62 207.96 392.58 214.63 395.03 220.15C396.25 222.91 397.35 225.38 398.14 227.17L399.07 229.28C399.17 229.51 399.26 229.72 399.34 229.92C399.35 229.94 399.37 229.97 399.38 229.99H399.37C399.57 230.58 399.56 231.05 398.92 231.35C398.78 231.41 398.64 231.45 398.5 231.45H398.48Z" fill="#17000B"/>
<path d="M415.89 222.78C415.47 222.78 415.08 222.51 414.94 222.09C411.86 212.56 407.47 203.5 401.9 195.17C401.59 194.71 401.72 194.09 402.17 193.78C402.63 193.47 403.25 193.6 403.56 194.05C409.23 202.53 413.7 211.76 416.84 221.47C417.01 222 416.72 222.56 416.2 222.73C416.1 222.76 415.99 222.78 415.89 222.78Z" fill="#17000B"/>
<path d="M315.88 495.94H199.97C199.18 491.52 198.38 487 197.59 482.55C196.43 476.03 195.29 469.65 194.25 463.93C201.66 460.43 208.77 456.4 215.61 451.95C229.09 443.17 241.53 432.75 253.26 421.53C256.09 418.82 258.88 416.06 261.63 413.27C266.64 408.2 271.52 403.01 276.3 397.77C280.64 393.02 284.93 388.21 289.2 383.39C297.45 394.28 301.26 408.3 304.32 421.81C304.47 422.47 304.62 423.14 304.77 423.83C304.86 424.24 304.95 424.66 305.04 425.08C305.16 425.63 305.27 426.19 305.39 426.76C305.39 426.77 305.39 426.78 305.39 426.8C305.44 427.05 305.49 427.3 305.54 427.55C305.85 429.06 306.15 430.64 306.46 432.27C306.51 432.54 306.56 432.81 306.61 433.09C306.74 433.8 306.87 434.51 307 435.24C307.1 435.79 307.2 436.34 307.3 436.89C307.42 437.59 307.55 438.29 307.67 439C307.85 439.99 308.01 440.98 308.18 441.98C308.36 443.04 308.54 444.11 308.71 445.19C308.76 445.49 308.81 445.79 308.86 446.09C308.93 446.47 308.99 446.85 309.05 447.24C309.19 448.07 309.32 448.9 309.45 449.74C309.5 450.05 309.55 450.35 309.59 450.66C310.12 454.04 310.64 457.46 311.14 460.88C311.23 461.5 311.32 462.12 311.41 462.74C311.55 463.67 311.68 464.6 311.81 465.53C311.94 466.46 312.07 467.38 312.2 468.3C312.3 469.01 312.4 469.71 312.5 470.41C312.62 471.28 312.74 472.15 312.86 473.02C313.18 475.38 313.5 477.7 313.8 479.95C313.87 480.52 313.95 481.1 314.03 481.67C314.16 482.66 314.29 483.64 314.42 484.61C314.52 485.35 314.61 486.08 314.7 486.79C314.84 487.85 314.97 488.9 315.1 489.91C315.14 490.25 315.19 490.58 315.23 490.91C315.42 492.45 315.61 493.93 315.79 495.34C315.81 495.55 315.84 495.75 315.86 495.95L315.88 495.94Z" fill="#BFD3DE"/>
<path d="M199.98 496.95C199.5 496.95 199.08 496.61 199 496.13C198.21 491.71 197.41 487.19 196.62 482.73C195.46 476.21 194.32 469.83 193.28 464.11L193.14 463.36L193.83 463.03C200.91 459.69 208.05 455.68 215.07 451.12C227.36 443.12 239.63 433.21 252.58 420.82C255.34 418.18 258.15 415.41 260.92 412.58C265.51 407.93 270.3 402.87 275.56 397.11C280.16 392.07 284.66 387.02 288.45 382.74L289.26 381.83L290 382.8C298.58 394.14 302.4 408.77 305.3 421.6C305.45 422.26 305.6 422.94 305.75 423.63C305.85 424.1 305.94 424.49 306.02 424.89C306.14 425.43 306.25 426 306.37 426.58V426.6C306.43 426.85 306.48 427.11 306.53 427.37C306.84 428.88 307.14 430.46 307.45 432.09L307.6 432.92C307.73 433.62 307.86 434.34 307.99 435.07L308.39 437.29C308.48 437.8 308.57 438.32 308.66 438.84C308.83 439.82 309 440.82 309.17 441.82C309.35 442.88 309.53 443.96 309.7 445.04C309.75 445.34 309.8 445.65 309.85 445.96C309.91 446.32 309.98 446.71 310.04 447.1C310.18 447.93 310.31 448.76 310.44 449.6L310.59 450.53C311.12 453.9 311.64 457.33 312.14 460.75L313.87 472.89C314.17 475.09 314.47 477.26 314.75 479.37L315.42 484.47C315.52 485.21 315.61 485.94 315.7 486.66L316.87 495.95C316.87 496.5 316.42 496.95 315.87 496.95C315.32 496.95 314.91 496.55 314.87 496.03L313.71 486.91C313.62 486.2 313.53 485.47 313.43 484.74L312.76 479.64C312.48 477.53 312.18 475.36 311.88 473.16L310.16 461.04C309.66 457.63 309.14 454.21 308.61 450.83L308.47 449.91C308.34 449.07 308.21 448.24 308.07 447.41C308.01 447.02 307.95 446.65 307.88 446.27C307.83 445.96 307.78 445.66 307.73 445.37C307.55 444.28 307.38 443.21 307.19 442.15C307.02 441.15 306.85 440.16 306.68 439.17C306.59 438.65 306.5 438.14 306.41 437.63L306.01 435.41C305.88 434.69 305.75 433.97 305.62 433.27L305.47 432.45C305.16 430.84 304.86 429.26 304.55 427.75C304.5 427.5 304.45 427.26 304.4 427.02L304.38 426.91C304.27 426.36 304.16 425.83 304.05 425.3C303.97 424.9 303.88 424.51 303.8 424.13C303.63 423.36 303.48 422.69 303.34 422.03C300.57 409.78 296.96 395.86 289.12 384.98C285.5 389.06 281.31 393.76 277.03 398.45C271.75 404.23 266.95 409.31 262.34 413.98C259.55 416.82 256.73 419.6 253.95 422.26C240.91 434.74 228.55 444.72 216.15 452.79C209.29 457.26 202.3 461.19 195.37 464.51C196.37 470.04 197.46 476.15 198.57 482.39C199.36 486.84 200.16 491.36 200.95 495.78C201.05 496.32 200.68 496.84 200.14 496.94C200.08 496.95 200.02 496.96 199.96 496.96L199.98 496.95Z" fill="#17000B"/>
<path d="M181.22 318.93C181.1 318.93 180.97 318.91 180.85 318.86C180.34 318.65 180.09 318.07 180.3 317.56C183.86 308.75 187.86 299.98 192.21 291.52C192.46 291.03 193.06 290.83 193.56 291.09C194.05 291.34 194.25 291.94 193.99 292.44C189.68 300.85 185.7 309.55 182.16 318.31C182 318.7 181.63 318.94 181.23 318.94L181.22 318.93Z" fill="#17000B"/>
<path d="M197.34 325.87C197.22 325.87 197.1 325.85 196.99 325.81C196.47 325.62 196.21 325.04 196.4 324.52C199.58 316.03 203.03 307.51 206.65 299.19C206.87 298.68 207.46 298.45 207.97 298.67C208.48 298.89 208.71 299.48 208.49 299.99C204.89 308.28 201.45 316.77 198.28 325.23C198.13 325.63 197.75 325.88 197.34 325.88V325.87Z" fill="#17000B"/>
<path d="M207.53 336.02C207.42 336.02 207.3 336 207.19 335.96C206.67 335.77 206.41 335.2 206.6 334.68L215.66 310C215.85 309.48 216.43 309.21 216.94 309.41C217.46 309.6 217.72 310.17 217.53 310.69L208.47 335.37C208.32 335.77 207.94 336.03 207.53 336.03V336.02Z" fill="#17000B"/>
<path d="M315.88 495.95H290.42C290.35 492.79 291.38 489.58 293.56 487.31C287.75 487.11 282.71 481.55 282.68 475.74C282.65 469.93 287.75 464.57 293.56 464.31C290.29 460.96 290.19 455.22 292.89 451.4C295.59 447.58 300.6 445.75 305.24 446.29C306.56 446.44 307.84 446.77 309.07 447.24C311.81 464.27 314.29 483.09 315.88 495.94V495.95Z" fill="#745E25"/>
<path d="M317.01 496.95H289.44L289.42 495.97C289.36 493.06 290.16 490.27 291.65 488.07C286.18 486.9 281.7 481.56 281.67 475.74C281.64 470.02 286.14 464.73 291.67 463.54C289.29 459.88 289.37 454.63 292.07 450.82C294.88 446.85 300.09 444.68 305.35 445.3C306.71 445.46 308.08 445.8 309.43 446.31L309.97 446.52L310.06 447.09C313 465.37 315.6 485.47 316.88 495.83L317.02 496.95H317.01ZM291.43 494.95H314.74C313.43 484.44 310.96 465.44 308.16 447.99C307.15 447.64 306.12 447.41 305.11 447.29C300.64 446.76 296.05 448.65 293.69 451.98C291.19 455.51 291.44 460.73 294.26 463.61L295.82 465.21L293.59 465.31C288.28 465.55 283.64 470.42 283.67 475.74C283.7 481.1 288.42 486.14 293.59 486.31L295.82 486.39L294.27 488C292.59 489.76 291.58 492.25 291.43 494.95Z" fill="#17000B"/>
<path d="M305.4 426.77C303.67 428.51 301.55 429.84 299.17 430.44C293.29 431.95 286.55 428.42 284.43 422.73C283.09 426.92 278.08 429.2 273.77 428.35C269.46 427.5 265.97 424.12 263.96 420.21C263.02 418.38 262.06 415.82 261.64 413.26C266.65 408.19 271.53 403 276.31 397.76C280.65 393.01 284.94 388.2 289.21 383.38C297.46 394.27 301.27 408.29 304.33 421.8C304.48 422.46 304.63 423.13 304.78 423.82C304.87 424.23 304.96 424.65 305.05 425.07C305.17 425.62 305.28 426.18 305.4 426.75V426.77Z" fill="#745E25"/>
<path d="M296.39 431.78C291.63 431.78 286.86 429.12 284.43 425.03C282.28 428.31 277.85 430.17 273.57 429.33C269.35 428.49 265.42 425.26 263.07 420.67C261.93 418.44 261.05 415.8 260.65 413.43L260.57 412.93L260.93 412.57C265.52 407.92 270.31 402.86 275.57 397.1C280.19 392.05 284.68 387 288.46 382.73L289.27 381.82L290.01 382.79C298.59 394.13 302.41 408.76 305.31 421.59C305.46 422.25 305.61 422.93 305.76 423.63C305.85 424.05 305.94 424.46 306.03 424.89C306.15 425.43 306.26 426 306.38 426.58L306.49 427.1L306.11 427.48C304.18 429.43 301.86 430.79 299.42 431.42C298.43 431.67 297.41 431.8 296.4 431.8L296.39 431.78ZM284.36 419.68L285.37 422.39C287.32 427.61 293.52 430.86 298.92 429.48C300.86 428.98 302.71 427.94 304.31 426.44C304.23 426.06 304.15 425.68 304.07 425.3C303.98 424.87 303.89 424.46 303.8 424.05C303.65 423.36 303.5 422.69 303.35 422.03C300.58 409.78 296.97 395.86 289.13 384.98C285.52 389.05 281.33 393.75 277.04 398.45C271.9 404.08 267.21 409.04 262.71 413.61C263.1 415.63 263.89 417.9 264.84 419.77C266.92 423.82 270.32 426.66 273.95 427.38C277.55 428.09 282.24 426.28 283.47 422.44L284.35 419.69L284.36 419.68Z" fill="#17000B"/>
<path d="M257.94 450.88C253.66 455.48 246.38 457.22 240.71 454.53C241.14 459.39 237.09 464 232.3 464.91C227.5 465.82 222.44 463.44 219.41 459.62C217.92 457.74 216.38 454.83 215.63 451.94C229.11 443.16 241.55 432.74 253.28 421.52C257.25 424.45 260.37 428.54 261.75 433.26C263.52 439.29 262.23 446.27 257.94 450.87V450.88Z" fill="#745E25"/>
<path d="M230.2 466.1C225.92 466.1 221.56 463.94 218.62 460.24C216.9 458.08 215.38 455 214.65 452.19L214.47 451.49L215.07 451.1C227.36 443.1 239.63 433.18 252.58 420.8L253.19 420.22L253.87 420.72C258.18 423.9 261.32 428.26 262.71 432.99C264.65 439.57 263.06 446.86 258.68 451.56C254.34 456.23 247.42 457.98 241.71 456.01C241.3 460.63 237.39 464.96 232.49 465.89C231.74 466.03 230.97 466.1 230.21 466.1H230.2ZM216.78 452.38C217.49 454.74 218.76 457.22 220.18 459C223.15 462.73 227.94 464.71 232.11 463.93C236.6 463.08 240.08 458.82 239.71 454.62L239.56 452.88L241.14 453.63C246.32 456.08 253.08 454.64 257.21 450.2C261.12 446 262.53 439.47 260.79 433.56C259.59 429.49 256.97 425.72 253.35 422.85C240.76 434.84 228.78 444.52 216.79 452.39L216.78 452.38Z" fill="#17000B"/>
<path d="M199.98 495.95C199.19 491.53 198.39 487.01 197.6 482.55C200.08 479.89 203.36 477.97 206.93 477.27C213.59 475.95 220.91 478.93 224.75 484.54C228.33 479.96 233.8 476.91 239.58 476.26C242.88 475.89 246.38 476.33 249.12 478.19C251.87 480.05 253.64 483.54 252.84 486.75C258.43 484.98 264.34 487.8 268.02 492.36C268.84 493.37 269.54 494.6 270.14 495.95" fill="#745E25"/>
<path d="M270.14 496.95C269.76 496.95 269.39 496.73 269.22 496.35C268.63 495.01 267.97 493.88 267.24 492.98C263.42 488.26 257.89 486.19 253.14 487.7L251.44 488.24L251.87 486.51C252.52 483.9 251.12 480.75 248.56 479.02C245.68 477.06 242.15 476.98 239.69 477.26C234.14 477.89 228.98 480.77 225.54 485.16L224.7 486.23L223.93 485.11C220.31 479.83 213.4 477.01 207.13 478.26C204.02 478.88 201.03 480.51 198.68 482.89L200.97 495.79C201.07 496.33 200.7 496.85 200.16 496.95C199.62 497.05 199.1 496.68 199 496.14L196.54 482.25L196.88 481.88C199.57 479.01 203.07 477.03 206.74 476.3C213.34 474.99 220.58 477.7 224.8 482.93C228.54 478.68 233.82 475.91 239.47 475.27C242.27 474.96 246.31 475.07 249.69 477.37C252.49 479.26 254.13 482.42 254.04 485.44C259.21 484.49 264.86 486.85 268.82 491.74C269.66 492.77 270.42 494.06 271.07 495.56C271.29 496.07 271.07 496.66 270.56 496.88C270.43 496.94 270.29 496.96 270.16 496.96L270.14 496.95Z" fill="#17000B"/>
<path d="M299.18 216.92C303.25 216.92 306.55 213.621 306.55 209.55C306.55 205.48 303.25 202.18 299.18 202.18C295.11 202.18 291.81 205.48 291.81 209.55C291.81 213.621 295.11 216.92 299.18 216.92Z" fill="#17000B"/>
<path d="M299.18 217.92C294.56 217.92 290.81 214.16 290.81 209.55C290.81 204.94 294.57 201.18 299.18 201.18C303.79 201.18 307.55 204.94 307.55 209.55C307.55 214.16 303.79 217.92 299.18 217.92ZM299.18 203.18C295.67 203.18 292.81 206.04 292.81 209.55C292.81 213.06 295.67 215.92 299.18 215.92C302.69 215.92 305.55 213.06 305.55 209.55C305.55 206.04 302.69 203.18 299.18 203.18Z" fill="#17000B"/>
<path d="M495.94 293V455.52C495.94 477.85 477.84 495.96 455.5 495.96H315.88C315.86 495.75 315.83 495.55 315.81 495.34C315.63 493.93 315.44 492.45 315.25 490.91C315.21 490.58 315.16 490.24 315.12 489.91C314.99 488.89 314.85 487.85 314.72 486.79C314.63 486.08 314.54 485.35 314.44 484.61C314.31 483.65 314.19 482.67 314.05 481.67C313.98 481.1 313.9 480.53 313.82 479.95C313.52 477.7 313.2 475.38 312.88 473.02C312.76 472.16 312.64 471.29 312.52 470.41C312.42 469.71 312.32 469.01 312.22 468.3C312.09 467.38 311.96 466.46 311.83 465.53C311.7 464.6 311.56 463.67 311.43 462.74C311.34 462.12 311.25 461.5 311.16 460.88C310.66 457.46 310.14 454.04 309.61 450.66C309.56 450.35 309.52 450.05 309.47 449.74C309.34 448.9 309.21 448.07 309.07 447.24C309.01 446.85 308.95 446.47 308.88 446.09C308.83 445.79 308.79 445.49 308.73 445.19C308.55 444.11 308.38 443.04 308.2 441.98C308.03 440.97 307.86 439.98 307.69 439C307.57 438.29 307.44 437.59 307.32 436.89C307.22 436.34 307.12 435.79 307.02 435.24C306.89 434.51 306.76 433.8 306.63 433.09C306.58 432.81 306.53 432.54 306.48 432.27C306.17 430.64 305.87 429.07 305.56 427.55C305.51 427.3 305.46 427.05 305.41 426.8C305.41 426.79 305.41 426.78 305.41 426.76C305.3 426.19 305.18 425.63 305.06 425.08C304.97 424.66 304.88 424.24 304.79 423.83C304.64 423.14 304.49 422.46 304.34 421.81C301.28 408.3 297.46 394.29 289.22 383.39C291.59 380.71 293.95 378.03 296.32 375.35C307.19 363.03 318.09 350.75 329.66 339.16C336.95 353.7 347.05 366.98 360.71 375.64C364.15 377.82 367.78 379.69 371.55 381.21C395.41 390.87 423.53 385.96 445.48 372.51C452.59 368.15 459.23 362.9 464.59 356.5C474.51 344.69 479.65 329.45 481.69 314.16C483.13 303.31 483.11 292.36 482.68 281.41C486.43 284.55 492.35 289.6 495.95 292.99L495.94 293Z" fill="#F4BAEA"/>
<path d="M315.88 496.94C315.38 496.94 314.95 496.57 314.89 496.06L314.82 495.45C314.66 494.22 314.5 492.92 314.33 491.58L313.73 486.9C313.64 486.19 313.55 485.46 313.45 484.73L312.78 479.63C312.5 477.52 312.2 475.35 311.9 473.15L310.18 461.03C309.68 457.62 309.16 454.2 308.63 450.82L308.49 449.9C308.36 449.06 308.23 448.23 308.09 447.4C308.03 447.01 307.97 446.64 307.9 446.26C307.85 445.95 307.8 445.65 307.75 445.36C307.57 444.27 307.4 443.2 307.21 442.14C307.04 441.14 306.87 440.15 306.7 439.16C306.61 438.64 306.52 438.13 306.43 437.63L306.03 435.4C305.9 434.68 305.77 433.96 305.64 433.26L305.49 432.44C305.18 430.83 304.88 429.25 304.57 427.74C304.52 427.49 304.47 427.25 304.42 427.01L304.4 426.89C304.29 426.34 304.18 425.81 304.07 425.28C303.98 424.85 303.89 424.44 303.8 424.03C303.65 423.34 303.5 422.67 303.35 422.01C300.49 409.39 296.75 394.99 288.41 383.97L287.92 383.32L295.56 374.67C307.17 361.51 317.69 349.71 328.94 338.44L329.92 337.46L330.54 338.7C338.66 354.88 348.98 367.02 361.23 374.79C364.63 376.94 368.22 378.79 371.91 380.28C393.81 389.15 421.79 385.84 444.94 371.65C452.63 366.94 458.98 361.62 463.81 355.85C472.6 345.39 478.43 330.92 480.68 314.02C482.24 302.31 482.02 290.46 481.66 281.44L481.57 279.18L483.3 280.63C487.6 284.23 493.41 289.22 496.81 292.43C497.21 292.81 497.23 293.44 496.85 293.84C496.47 294.24 495.84 294.26 495.44 293.88C492.51 291.11 487.75 286.99 483.75 283.61C484.05 292.38 484.12 303.37 482.67 314.28C480.34 331.81 474.51 346.22 465.35 357.13C460.38 363.06 453.87 368.52 445.99 373.34C421.95 388.08 393.98 391.36 371.16 382.12C367.36 380.58 363.66 378.68 360.16 376.46C347.91 368.7 337.56 356.71 329.38 340.82C318.54 351.76 308.31 363.24 297.06 375.99L290.5 383.42C298.74 394.66 302.46 408.98 305.31 421.57C305.46 422.23 305.61 422.91 305.76 423.61C305.85 424.03 305.94 424.44 306.03 424.87C306.14 425.4 306.26 425.94 306.37 426.5L306.4 426.66C306.45 426.89 306.49 427.12 306.54 427.35C306.85 428.86 307.15 430.44 307.46 432.07L307.61 432.9C307.74 433.6 307.87 434.32 308 435.05L308.4 437.28C308.49 437.79 308.58 438.3 308.67 438.82C308.84 439.8 309.01 440.8 309.18 441.8C309.36 442.86 309.54 443.94 309.71 445.02C309.76 445.31 309.81 445.63 309.86 445.94C309.92 446.3 309.99 446.69 310.05 447.08C310.19 447.91 310.32 448.74 310.45 449.58L310.6 450.51C311.13 453.88 311.65 457.31 312.15 460.73L313.88 472.87C314.18 475.07 314.47 477.24 314.76 479.35L315.43 484.45C315.53 485.19 315.62 485.92 315.71 486.64L316.31 491.32C316.48 492.66 316.64 493.96 316.8 495.2L316.87 495.81C316.94 496.36 316.55 496.86 316 496.92C315.96 496.92 315.92 496.92 315.88 496.92V496.94Z" fill="#17000B"/>
<path d="M313.73 486.9L313.45 484.72L315.43 484.46C315.53 485.2 315.62 485.93 315.71 486.65L313.73 486.91V486.9Z" fill="#17000B"/>
<path d="M481.68 314.17C481.57 314.98 481.45 315.8 481.33 316.6C479.09 331.07 473.98 345.32 464.59 356.51C463.16 358.22 461.63 359.85 460.03 361.4C455.65 365.65 450.69 369.32 445.48 372.52C423.53 385.98 395.41 390.89 371.55 381.22C371.34 381.14 371.14 381.05 370.93 380.96C367.38 379.49 363.96 377.7 360.71 375.64C347.05 366.98 336.95 353.69 329.66 339.16C335.4 333.4 341.31 327.82 347.45 322.49C348.06 321.96 348.67 321.43 349.29 320.9C369.32 303.79 391.82 289.59 415.83 278.77C422.47 275.78 429.22 273.04 436.08 270.57C444.73 267.45 453.54 264.77 462.46 262.52C468.34 269.48 475.53 275.42 482.68 281.4C483.12 292.36 483.14 303.31 481.69 314.16L481.68 314.17Z" fill="#BFD3DE"/>
<path d="M398.53 387.31C389 387.31 379.72 385.61 371.17 382.14C370.96 382.06 370.74 381.97 370.52 381.87C366.97 380.4 363.48 378.58 360.17 376.48C347.61 368.52 337.04 356.11 328.76 339.6L328.44 338.96L328.95 338.45C335.16 332.23 340.99 326.76 346.79 321.73C347.4 321.2 348.02 320.66 348.64 320.14C368.68 303.02 391.15 288.8 415.42 277.86C422.04 274.88 428.87 272.11 435.74 269.63L435.91 269.57C444.54 266.47 453.39 263.77 462.22 261.55L462.82 261.4L463.22 261.88C468.81 268.5 475.76 274.32 482.48 279.94L483.67 280.94V281.41C484.03 290.48 484.25 302.44 482.68 314.3C482.57 315.12 482.45 315.94 482.32 316.76C479.77 333.19 474.07 346.78 465.35 357.15C463.94 358.83 462.38 360.5 460.72 362.11C456.59 366.12 451.63 369.91 446 373.36C430.98 382.57 414.42 387.31 398.54 387.31H398.53ZM330.87 339.35C338.94 355.21 349.15 367.13 361.24 374.79C364.46 376.83 367.84 378.59 371.31 380.03C371.52 380.12 371.71 380.2 371.91 380.28C393.82 389.15 421.8 385.85 444.95 371.66C450.46 368.28 455.3 364.58 459.33 360.67C460.95 359.11 462.46 357.49 463.82 355.86C472.3 345.77 477.85 332.51 480.34 316.44C480.47 315.64 480.58 314.83 480.69 314.03C482.22 302.5 482.04 290.84 481.68 281.88L481.19 281.47C474.56 275.93 467.72 270.2 462.09 263.64C453.47 265.83 444.83 268.47 436.41 271.51L436.24 271.57C429.48 274.01 422.75 276.74 416.23 279.68C392.14 290.54 369.83 304.67 349.93 321.66C349.32 322.18 348.71 322.71 348.1 323.24C342.5 328.1 336.86 333.38 330.87 339.35Z" fill="#17000B"/>
<path d="M422.27 319.55C420.55 324.42 416.47 328.21 411.83 330.48C407.58 332.56 402.09 333.37 398.4 330.41C399.56 337.61 396.52 345.41 390.59 349.65C384.66 353.89 376.07 354.16 370.06 350.03C368.17 348.73 366.76 346.42 366.59 344.14C365.18 345.68 362.83 345.85 360.74 345.74C358.11 345.6 355.4 345.14 353.24 343.62C351 342.03 349.65 339.47 348.74 336.88C347.13 332.29 346.71 327.29 347.44 322.48C348.05 321.95 348.66 321.42 349.28 320.89C369.31 303.78 391.81 289.58 415.82 278.76C415.87 278.79 415.91 278.82 415.95 278.85C418.03 280.39 419.34 282.73 420.45 285.07C422.02 288.37 423.34 291.87 423.53 295.53C423.72 299.18 421.67 302.74 419.06 305.3C422.96 308.69 423.99 314.67 422.27 319.54V319.55Z" fill="#745E25"/>
<path d="M379.93 353.97C376.2 353.97 372.51 352.94 369.48 350.86C367.78 349.69 366.48 347.85 365.89 345.91C364.22 346.8 362.2 346.82 360.67 346.74C358.45 346.62 355.21 346.25 352.65 344.44C350.56 342.96 348.97 340.6 347.78 337.22C346.13 332.53 345.67 327.38 346.43 322.34L346.49 321.98L346.77 321.74C347.38 321.2 348 320.67 348.62 320.14C368.66 303.02 391.13 288.8 415.4 277.86L415.93 277.62L416.4 277.97C416.48 278.02 416.52 278.05 416.56 278.09C418.8 279.74 420.18 282.23 421.33 284.66C422.69 287.52 424.29 291.35 424.51 295.49C424.68 298.76 423.22 302.28 420.46 305.29C423.89 308.89 425.02 314.73 423.2 319.89C421.54 324.6 417.55 328.79 412.26 331.39C408.58 333.19 403.58 334.22 399.6 332.35C400 339.39 396.76 346.48 391.16 350.48C387.9 352.81 383.9 353.98 379.93 353.98V353.97ZM367.4 341.75L367.57 344.07C367.71 345.99 368.93 348.06 370.61 349.22C376.18 353.05 384.34 352.89 389.99 348.85C395.54 344.89 398.52 337.54 397.4 330.58L396.99 328.02L399.01 329.64C402.45 332.39 407.65 331.41 411.38 329.59C416.2 327.22 419.83 323.45 421.32 319.22C423 314.45 421.8 309.04 418.39 306.07L417.58 305.36L418.35 304.6C421.16 301.85 422.68 298.56 422.52 295.59C422.32 291.8 420.82 288.21 419.53 285.51C418.55 283.44 417.4 281.35 415.67 279.93C391.78 290.76 369.66 304.8 349.91 321.66C349.39 322.1 348.87 322.55 348.36 323C347.72 327.61 348.17 332.29 349.67 336.56C350.72 339.53 352.07 341.58 353.8 342.81C355.45 343.97 357.6 344.57 360.77 344.75C363.3 344.89 364.91 344.48 365.82 343.47L367.39 341.75H367.4Z" fill="#17000B"/>
<path d="M481.68 314.17C481.57 314.98 481.45 315.8 481.33 316.6C479.42 316.73 477.48 316.37 475.77 315.52C472.35 313.83 469.92 310.02 469.69 306.21C468.11 308.6 465.17 309.84 462.31 309.98C459.45 310.11 456.63 309.28 453.95 308.26C452.22 307.61 450.51 306.86 449.02 305.76C444.48 302.37 442.95 296.1 443.44 290.45C439.65 291.02 435.81 288.5 434.19 285.02C432.56 281.55 432.89 277.39 434.34 273.85C434.81 272.7 435.39 271.61 436.07 270.57C444.72 267.45 453.53 264.77 462.45 262.52C468.33 269.48 475.52 275.42 482.67 281.4C483.11 292.36 483.13 303.31 481.68 314.16V314.17Z" fill="#745E25"/>
<path d="M480.56 317.63C478.72 317.63 476.92 317.22 475.32 316.43C472.26 314.92 469.9 311.87 469.03 308.46C467.32 309.95 464.95 310.86 462.35 310.99C459.16 311.14 456.13 310.17 453.59 309.21C451.95 308.59 450.05 307.79 448.42 306.57C444.32 303.51 442.1 297.95 442.37 291.54H442.36C438.68 291.54 435 289.13 433.28 285.46C431.66 282.01 431.71 277.65 433.41 273.48C433.9 272.28 434.51 271.12 435.23 270.03L435.53 269.58H435.9C444.53 266.48 453.38 263.78 462.21 261.56L462.81 261.41L463.21 261.89C468.8 268.51 475.75 274.33 482.47 279.95L483.66 280.95V281.42C484.02 290.49 484.24 302.45 482.67 314.31C482.56 315.13 482.44 315.95 482.31 316.77L482.19 317.56L481.39 317.61C481.11 317.63 480.84 317.64 480.56 317.64V317.63ZM470.49 303.16L470.67 306.15C470.88 309.64 473.16 313.13 476.19 314.63C477.49 315.27 478.95 315.61 480.45 315.63C480.53 315.1 480.6 314.57 480.67 314.04C482.2 302.51 482.02 290.85 481.66 281.89L481.17 281.48C474.54 275.94 467.7 270.21 462.07 263.65C453.55 265.81 445.02 268.42 436.7 271.4C436.13 272.3 435.64 273.25 435.24 274.23C433.75 277.88 433.69 281.66 435.07 284.6C436.59 287.85 440.11 289.94 443.27 289.46L444.53 289.27L444.42 290.54C443.88 296.74 445.82 302.14 449.6 304.96C451.03 306.03 452.69 306.73 454.28 307.33C456.63 308.22 459.41 309.11 462.24 308.98C465.08 308.85 467.55 307.6 468.83 305.66L470.48 303.16H470.49Z" fill="#17000B"/>
<path d="M460.02 361.39C455.64 365.64 450.68 369.31 445.47 372.51C423.52 385.97 395.4 390.88 371.54 381.21C371.33 381.13 371.13 381.04 370.92 380.95C371.04 377.19 372.54 373.47 375.33 370.94C380.51 366.23 389.35 366.33 394.43 371.15C394.78 369.04 394.9 366.88 395.44 364.8C397.08 358.56 402.88 353.63 409.31 353.03C415.74 352.43 422.35 356.2 425.11 362.04C428.98 355 437.58 351.35 445.54 352.38C450.15 352.98 454.57 355.12 457.76 358.48C458.6 359.37 459.35 360.34 460.01 361.37L460.02 361.39Z" fill="#745E25"/>
<path d="M398.53 387.31C389 387.31 379.72 385.61 371.17 382.14C370.96 382.06 370.74 381.97 370.52 381.87L369.9 381.6L369.92 380.92C370.05 376.72 371.78 372.81 374.66 370.2C379.8 365.52 388.12 365.23 393.7 369.25C393.72 369.09 393.74 368.93 393.76 368.76C393.93 367.38 394.11 365.95 394.48 364.55C396.21 357.94 402.42 352.68 409.23 352.04C415.45 351.46 421.88 354.77 425.18 360.06C429.45 353.87 437.61 350.35 445.68 351.39C450.64 352.03 455.19 354.31 458.5 357.8C459.37 358.72 460.17 359.75 460.87 360.85L461.3 361.54L460.72 362.1C456.59 366.11 451.63 369.9 445.99 373.36C430.97 382.57 414.41 387.31 398.53 387.31ZM371.96 380.3C393.86 389.15 421.82 385.84 444.95 371.65C450.19 368.44 454.82 364.93 458.73 361.24C458.22 360.5 457.66 359.81 457.05 359.18C454.05 356.02 449.92 353.96 445.42 353.38C437.51 352.35 429.53 356.11 426 362.53L425.06 364.24L424.22 362.47C421.64 357.02 415.41 353.47 409.41 354.03C403.41 354.59 397.94 359.23 396.41 365.05C396.08 366.32 395.91 367.63 395.74 369C395.64 369.77 395.55 370.54 395.42 371.31L395.11 373.17L393.74 371.87C389.06 367.42 380.77 367.33 376 371.67C373.67 373.78 372.22 376.89 371.95 380.29L371.96 380.3Z" fill="#17000B"/>
<path d="M455.5 496.95H128.43C114.98 496.95 102.38 490.42 94.61 479.45H94.13V478.76C93.81 478.29 93.5 477.82 93.2 477.33C89.14 470.79 87 463.25 87 455.52V128.44C86.99 105.59 105.58 87 128.43 87H455.5C478.35 87 496.94 105.59 496.94 128.44V455.51C496.94 478.36 478.35 496.95 455.5 496.95ZM95.78 477.63L95.95 477.87C103.32 488.56 115.46 494.94 128.43 494.94H455.5C477.24 494.94 494.94 477.25 494.94 455.5V128.44C494.94 106.7 477.25 89 455.5 89H128.43C106.68 89 88.99 106.69 88.99 128.44V455.51C88.99 462.87 91.03 470.05 94.89 476.27C95.18 476.73 95.47 477.19 95.78 477.63Z" fill="#17000B"/>
<path d="M248.5 360.4C249.59 366.39 250.3 372.75 246.76 377.7C245.35 379.67 243.36 381.13 241.41 382.55C230.21 390.73 219 398.91 207.8 407.09C205.83 408.53 203.71 410.03 201.27 410.21C198.27 410.43 195.53 408.62 193.17 406.76C184.23 399.7 178.56 388.98 170.54 378.63C157.86 362.26 127.34 321.88 126.17 317.46C124.37 310.66 124.57 308.07 126.33 301.26L248.5 360.4Z" fill="#DBD1C1"/>
<path d="M200.77 411.23C197.66 411.23 194.88 409.38 192.55 407.55C186.26 402.58 181.59 395.88 176.65 388.79C174.47 385.66 172.21 382.43 169.75 379.25C160.68 367.54 126.54 322.79 125.2 317.73C123.34 310.72 123.55 308.02 125.36 301.02L125.67 299.84L249.4 359.73L249.49 360.23C250.57 366.17 251.41 372.95 247.58 378.29C246.06 380.41 243.91 381.98 242.01 383.37L208.4 407.91C206.51 409.29 204.15 411.01 201.36 411.22C201.17 411.23 200.97 411.24 200.78 411.24L200.77 411.23ZM127 302.69C125.58 308.4 125.47 310.91 127.14 317.2C128.19 321.18 156.92 359.4 171.34 378.01C173.83 381.23 176.1 384.48 178.3 387.63C183.15 394.6 187.74 401.18 193.8 405.96C195.97 407.67 198.56 409.39 201.21 409.2C203.27 409.05 205.08 407.84 207.22 406.27L240.83 381.73C242.7 380.37 244.63 378.96 245.96 377.1C249.23 372.53 248.58 366.47 247.62 361.06L127.01 302.68L127 302.69Z" fill="#17000B"/>
<path d="M245.259 367.94L207.439 397.15C203.749 400 198.439 399.32 195.579 395.63L127.939 308.03C125.089 304.34 125.769 299.03 129.459 296.17L174.239 261.58C178.139 258.56 183.789 259.52 186.489 263.65L247.169 356.62C249.579 360.31 248.749 365.24 245.259 367.93V367.94Z" fill="#FDF5DC"/>
<path d="M202.29 399.91C199.46 399.91 196.66 398.65 194.799 396.24L127.14 308.65C125.6 306.65 124.92 304.17 125.25 301.67C125.58 299.17 126.85 296.94 128.85 295.39L173.63 260.8C175.71 259.19 178.389 258.52 180.979 258.96C183.569 259.4 185.88 260.91 187.32 263.11L247.999 356.08C250.679 360.18 249.739 365.73 245.859 368.73L208.04 397.94C206.32 399.27 204.289 399.91 202.27 399.91H202.29ZM179.39 260.83C177.76 260.83 176.19 261.37 174.86 262.39L130.08 296.98C128.5 298.2 127.5 299.95 127.24 301.93C126.99 303.9 127.52 305.86 128.73 307.43L196.38 395.02C198.89 398.27 203.579 398.87 206.829 396.36L244.65 367.15C247.7 364.79 248.44 360.41 246.34 357.18L185.66 264.21C184.509 262.45 182.74 261.29 180.66 260.94C180.24 260.87 179.81 260.83 179.39 260.83Z" fill="#17000B"/>
<path d="M198.791 327.09C198.481 328.06 197.151 328.19 196.661 327.29C195.581 325.33 193.851 322.34 191.811 319.38L168.331 337.51C166.461 338.95 163.781 338.61 162.341 336.74L151.471 322.66C150.031 320.79 150.371 318.11 152.241 316.67L180.401 294.91C182.271 293.47 184.951 293.81 186.391 295.68L197.691 310.31C197.691 310.31 197.731 310.36 197.751 310.39C198.481 311.36 199.021 312.4 199.401 313.5C201.091 318.29 199.811 323.91 198.791 327.08V327.09Z" fill="#E75837"/>
<path d="M165.731 339.4C164.151 339.4 162.591 338.7 161.551 337.35L150.681 323.27C148.901 320.97 149.331 317.66 151.631 315.88L179.791 294.12C180.901 293.26 182.291 292.89 183.681 293.06C185.081 293.24 186.321 293.95 187.181 295.06L198.481 309.69C198.481 309.69 198.551 309.78 198.581 309.83C199.311 310.79 199.911 311.93 200.341 313.16C202.151 318.29 200.741 324.26 199.741 327.37C199.471 328.2 198.741 328.78 197.881 328.86C197.011 328.94 196.201 328.52 195.781 327.75C194.801 325.98 193.321 323.4 191.571 320.8L168.931 338.28C167.971 339.02 166.841 339.38 165.721 339.38L165.731 339.4ZM183.011 295.03C182.291 295.03 181.601 295.27 181.021 295.71L152.861 317.47C151.431 318.57 151.171 320.63 152.271 322.05L163.141 336.13C164.241 337.56 166.301 337.82 167.721 336.72L192.041 317.94L192.641 318.81C194.691 321.77 196.441 324.79 197.551 326.81C197.571 326.84 197.611 326.91 197.711 326.9C197.821 326.89 197.851 326.81 197.851 326.78C198.781 323.91 200.091 318.42 198.471 313.84C198.111 312.8 197.601 311.84 196.961 311L185.601 296.29C185.071 295.6 184.301 295.16 183.431 295.05C183.291 295.03 183.151 295.02 183.011 295.02V295.03Z" fill="#17000B"/>
<path d="M212.779 371.89C213.649 371.86 214.069 370.8 213.439 370.18C212.069 368.83 210.009 366.72 208.039 364.34L228.429 349.18C230.049 347.98 230.389 345.68 229.179 344.06L220.089 331.83C218.889 330.21 216.589 329.87 214.969 331.08L190.499 349.27C188.879 350.47 188.539 352.77 189.749 354.39L199.199 367.1C199.199 367.1 199.229 367.15 199.249 367.17C199.879 368 200.619 368.68 201.429 369.25C204.989 371.76 209.919 372 212.769 371.89H212.779Z" fill="#94ABD6"/>
<path d="M211.729 372.91C208.779 372.91 204.259 372.45 200.869 370.07C199.939 369.42 199.129 368.65 198.469 367.78L188.959 354.99C187.429 352.93 187.859 350.01 189.919 348.47L214.389 330.28C216.449 328.75 219.369 329.18 220.899 331.24L229.989 343.47C230.729 344.47 231.039 345.7 230.859 346.93C230.679 348.16 230.029 349.25 229.029 349.99L209.489 364.52C211.199 366.51 212.929 368.28 214.139 369.47C214.719 370.03 214.899 370.85 214.599 371.61C214.309 372.36 213.609 372.86 212.809 372.89C212.479 372.9 212.109 372.91 211.719 372.91H211.729ZM217.159 331.36C216.609 331.36 216.049 331.53 215.579 331.88L191.109 350.07C189.929 350.94 189.689 352.61 190.559 353.79L200.009 366.5C200.599 367.27 201.249 367.9 202.009 368.43C205.379 370.8 210.179 370.99 212.739 370.89C211.319 369.51 209.229 367.36 207.259 364.98L206.589 364.17L227.829 348.38C229.009 347.51 229.249 345.84 228.379 344.66L219.289 332.43C218.769 331.73 217.969 331.36 217.149 331.36H217.159Z" fill="#17000B"/>
<path d="M153.08 291.7C153.16 294.33 154.56 296.89 156.73 298.38C157.23 298.72 157.76 299.01 158.34 299.18C159.75 299.59 161.28 299.23 162.58 298.57C165.8 296.95 167.97 293.24 167.4 289.68C165.88 280.16 152.77 282.33 153.07 291.7H153.08Z" fill="#FFD95F"/>
<path d="M159.61 300.36C159.11 300.36 158.59 300.3 158.07 300.15C157.44 299.97 156.82 299.66 156.17 299.22C153.74 297.55 152.18 294.69 152.08 291.75C151.9 286.23 155.88 282.96 159.89 282.58C163.51 282.23 167.55 284.25 168.39 289.54C169.01 293.42 166.76 297.6 163.03 299.48C162.15 299.92 160.93 300.37 159.6 300.37L159.61 300.36ZM154.08 291.68C154.15 294 155.39 296.25 157.3 297.57C157.77 297.89 158.2 298.11 158.62 298.23C159.62 298.52 160.87 298.33 162.14 297.69C165.06 296.22 166.9 292.85 166.42 289.85C165.74 285.56 162.58 284.32 160.08 284.56C156.99 284.85 153.94 287.39 154.08 291.68Z" fill="#17000B"/>
<path d="M159.411 321.88C159.101 321.88 158.801 321.74 158.611 321.48C158.281 321.04 158.371 320.41 158.811 320.08L182.761 302.22C183.201 301.89 183.831 301.98 184.161 302.42C184.491 302.86 184.401 303.49 183.961 303.82L160.011 321.68C159.831 321.81 159.621 321.88 159.411 321.88Z" fill="#17000B"/>
<path d="M166.39 329.65C166.1 329.65 165.81 329.52 165.61 329.28C165.26 328.85 165.33 328.22 165.76 327.87L178.32 317.72C178.75 317.37 179.38 317.44 179.73 317.87C180.08 318.3 180.01 318.93 179.58 319.28L167.02 329.43C166.83 329.58 166.61 329.65 166.39 329.65Z" fill="#17000B"/>
<path d="M199.29 351.69C198.96 351.69 198.63 351.52 198.44 351.22C198.15 350.75 198.29 350.14 198.76 349.84L215.99 339.05C216.46 338.76 217.07 338.9 217.37 339.37C217.66 339.84 217.52 340.45 217.05 340.75L199.82 351.54C199.65 351.64 199.47 351.69 199.29 351.69Z" fill="#17000B"/>
<path d="M202.1 358.93C201.78 358.93 201.47 358.78 201.27 358.49C200.96 358.03 201.08 357.41 201.53 357.1L214.03 348.59C214.49 348.28 215.11 348.4 215.42 348.85C215.73 349.31 215.61 349.93 215.16 350.24L202.66 358.75C202.49 358.87 202.29 358.92 202.1 358.92V358.93Z" fill="#17000B"/>
<path d="M155.711 383.59C156.491 377.12 157.711 370.7 159.341 364.39C160.851 358.55 163.591 351.95 169.441 350.46C173.481 349.43 177.841 351.4 180.641 354.49C183.441 357.58 184.941 361.62 186.071 365.64C191.541 385.15 189.551 405.86 187.531 426.02" fill="#AD8145"/>
<path d="M187.531 427.02C187.531 427.02 187.461 427.02 187.431 427.02C186.881 426.96 186.481 426.47 186.531 425.92C188.431 406.97 190.591 385.5 185.111 365.91C184.111 362.33 182.701 358.25 179.901 355.16C177.071 352.04 173.061 350.57 169.681 351.43C165.391 352.52 162.331 356.84 160.311 364.64C158.691 370.88 157.481 377.3 156.701 383.71C156.631 384.26 156.131 384.65 155.591 384.58C155.041 384.51 154.651 384.02 154.721 383.47C155.511 376.97 156.741 370.47 158.381 364.14C160.601 355.57 164.141 350.78 169.201 349.5C173.281 348.47 178.071 350.16 181.391 353.83C184.471 357.22 185.971 361.57 187.041 365.38C192.631 385.33 190.451 407 188.531 426.13C188.481 426.65 188.041 427.03 187.541 427.03L187.531 427.02Z" fill="#17000B"/>
</svg>
