<svg width="80" height="80" viewBox="0 0 80 80" fill="none" xmlns="http://www.w3.org/2000/svg">
<path d="M17.4145 51.27C13.5545 48.67 9.91454 45.65 7.10454 41.93C1.85454 34.99 -0.175477 25.71 1.68452 17.21C2.10452 15.31 2.70452 13.44 3.65452 11.73C5.49452 8.4 8.59455 5.84 12.1145 4.41C15.6345 2.97 19.5545 2.63 23.3245 3.15C25.5245 3.46 27.7045 4.06 29.6245 5.18C34.8545 8.23 37.2545 14.43 38.7945 20.31C38.8045 20.36 38.8745 20.36 38.8845 20.31C39.8745 14.81 42.6546 9.99 46.7746 6.22C50.8946 2.45 56.7245 1 62.3945 1C72.0445 1 88.4045 11.72 72.0445 37.49C59.5245 57.21 48.2345 58.87 42.2645 61.97C41.9645 62.12 41.6245 62.14 41.3245 62C38.7345 60.77 24.1045 55.78 17.4145 51.28V51.27Z" fill="#E75837"/>
<path d="M41.7545 63.09C41.4645 63.09 41.1645 63.03 40.8945 62.9C40.2645 62.6 38.7945 62.03 36.9245 61.31C31.3145 59.14 21.9145 55.52 16.8545 52.11C12.3045 49.05 8.85451 45.92 6.30451 42.55C0.864507 35.36 -1.2255 25.81 0.704501 17.01C1.1945 14.77 1.87451 12.89 2.77451 11.26C4.67451 7.84 7.8545 5.08001 11.7345 3.49001C15.2645 2.05001 19.3245 1.59001 23.4545 2.17001C26.0345 2.53001 28.2745 3.25 30.1145 4.33C34.7445 7.03 37.2145 11.97 38.7645 16.69C40.1545 12.46 42.6545 8.64 46.0945 5.48C51.0445 0.950003 57.6845 0 62.3845 0C67.5845 0 74.3845 2.82 77.8445 9.11C80.6745 14.27 82.1145 23.47 72.8745 38.02C62.3245 54.63 52.5945 58.66 46.1545 61.32C44.8345 61.86 43.7045 62.33 42.7145 62.84C42.4045 63 42.0745 63.08 41.7445 63.08L41.7545 63.09ZM20.0045 3.93C17.3445 3.93 14.7945 4.41001 12.4945 5.35001C9.03451 6.76001 6.20449 9.21 4.53449 12.23C3.72449 13.68 3.11449 15.39 2.66449 17.44C0.854492 25.68 2.81448 34.61 7.90448 41.34C10.3245 44.54 13.6145 47.52 17.9745 50.45C22.8545 53.73 32.1145 57.31 37.6445 59.45C39.6245 60.21 41.0545 60.77 41.7545 61.1C42.8645 60.54 44.0945 60.03 45.4045 59.49C51.6145 56.92 60.9945 53.04 71.2045 36.96C79.9245 23.23 78.6845 14.77 76.1045 10.08C73.0545 4.53 66.8645 2 62.3945 2C57.9245 2 51.9345 2.86001 47.4545 6.96001C43.4245 10.65 40.7945 15.33 39.8745 20.49L39.7345 21.28L38.0845 21.38L37.8345 20.57C36.4745 15.38 34.2445 9.04 29.1245 6.06001C27.5145 5.12001 25.5145 4.48 23.1945 4.16C22.1245 4.01 21.0645 3.94 20.0145 3.94L20.0045 3.93Z" fill="#17000B"/>
<path d="M53.2345 78.9C46.3545 76.45 39.6645 73.04 35.0445 67.18C32.4045 63.84 30.6845 59.82 30.4445 55.58C30.3145 53.29 30.5945 50.83 31.7745 48.82C32.9845 46.76 35.0845 45.31 37.3645 44.62C39.6445 43.93 42.1145 43.98 44.4445 44.47C46.8145 44.96 49.1345 45.93 50.8945 47.59C52.3345 48.94 53.3645 50.78 53.5945 52.71C53.6145 52.9 53.8745 52.93 53.9245 52.74C54.9845 48.97 57.5245 45.63 61.0645 43.96C65.0845 42.06 69.7345 42.91 73.0245 45.91C79.5545 51.87 76.7345 60.38 70.0445 67.27C66.0345 71.4 56.8245 77.19 54.4645 78.74C54.0945 78.98 53.6445 79.03 53.2345 78.89V78.9Z" fill="#F4BAEA"/>
<path d="M53.7046 79.9802C53.4346 79.9802 53.1646 79.9302 52.8946 79.8402C44.2246 76.7602 38.3045 72.9302 34.2545 67.8002C31.3445 64.1202 29.6845 59.9102 29.4345 55.6302C29.2645 52.7102 29.7646 50.2502 30.8946 48.3102C32.1646 46.1502 34.4145 44.4502 37.0645 43.6602C39.3545 42.9802 41.9045 42.9202 44.6345 43.4902C47.4845 44.0802 49.8145 45.2202 51.5645 46.8602C52.5345 47.7702 53.3145 48.8702 53.8445 50.0402C55.2845 46.9402 57.6646 44.4602 60.6146 43.0602C64.9146 41.0302 70.0346 41.8602 73.6746 45.1702C76.2446 47.5102 77.5945 50.3302 77.6945 53.5402C77.8345 58.0802 75.3646 63.2102 70.7346 67.9702C67.0446 71.7702 59.2245 76.8302 55.8845 79.0002L54.9846 79.5802C54.5846 79.8402 54.1346 79.9702 53.6746 79.9702L53.7046 79.9802ZM41.0546 45.1102C39.8446 45.1102 38.6945 45.2702 37.6545 45.5802C35.4845 46.2302 33.6545 47.5902 32.6345 49.3202C31.7045 50.9102 31.3045 52.9902 31.4445 55.5102C31.6645 59.3702 33.1846 63.1902 35.8346 66.5502C39.6446 71.3702 45.2745 74.9902 53.5745 77.9402C53.6945 77.9802 53.8145 77.9702 53.9145 77.9002L54.8245 77.3102C58.1045 75.1802 65.7945 70.2102 69.3245 66.5702C73.5745 62.2002 75.8445 57.5902 75.7245 53.5902C75.6445 50.9402 74.5145 48.6102 72.3545 46.6402C69.3145 43.8702 65.0546 43.1702 61.4946 44.8602C58.3746 46.3302 55.9146 49.3802 54.8946 53.0002C54.7446 53.5502 54.2445 53.8902 53.6845 53.8502C53.1245 53.8102 52.6746 53.3702 52.6146 52.8102C52.4246 51.1802 51.5545 49.5402 50.2245 48.3002C48.7645 46.9302 46.7045 45.9402 44.2545 45.4302C43.1645 45.2002 42.0945 45.0902 41.0645 45.0902L41.0546 45.1102Z" fill="#17000B"/>
</svg>
