<svg width="380" height="399" viewBox="0 0 380 399" fill="none" xmlns="http://www.w3.org/2000/svg">
<path d="M2 42C2 19.9086 19.9086 2 42 2H338C360.091 2 378 19.9086 378 42V399H2V42Z" fill="white"/>
<path d="M0 42C0 18.804 18.804 0 42 0H338C361.196 0 380 18.804 380 42H376C376 21.0132 358.987 4 338 4H42C21.0132 4 4 21.0132 4 42H0ZM378 399H2H378ZM0 399V42C0 18.804 18.804 0 42 0V4C21.0132 4 4 21.0132 4 42V399H0ZM338 0C361.196 0 380 18.804 380 42V399H376V42C376 21.0132 358.987 4 338 4V0Z" fill="#17000B"/>
<mask id="mask0_470_2018" style="mask-type:alpha" maskUnits="userSpaceOnUse" x="2" y="2" width="376" height="397">
<path d="M2 42C2 19.9086 19.9086 2 42 2H338C360.091 2 378 19.9086 378 42V399H2V42Z" fill="white"/>
</mask>
<g mask="url(#mask0_470_2018)">
<path d="M2 42C2 19.9086 19.9086 2 42 2H338C360.091 2 378 19.9086 378 42V399H2V42Z" fill="white"/>
<rect x="2" y="81" width="376" height="318" fill="white"/>
<path d="M90.8675 46.4828C90.6122 47.2791 89.9862 48.5799 88.6489 48.8048C88.6003 48.8048 88.5517 48.8169 88.503 48.823C88.4179 48.8291 88.3328 48.8352 88.2417 48.8352C85.5794 48.8352 84.3151 46.5315 84.0719 43.6503H91.682C91.7549 40.3316 90.1077 38.271 86.2297 38.271C82.3517 38.271 79.5679 40.9819 79.5679 45.1031C79.5679 48.203 81.6041 51.4063 86.1082 51.4063C88.9468 51.4063 91.2748 49.4916 91.682 46.653L91.3416 46.5801L90.8675 46.4828ZM84.0476 42.7021C84.0476 40.8361 84.6068 38.9457 85.8164 38.9457C86.9227 38.9457 87.4819 41.1764 87.3907 42.7325H84.0476V42.7021Z" fill="#E75837"/>
<path d="M59.0179 50.1238V51.0416H52.0886V50.1238C52.7025 50.1238 53.3043 49.9718 53.3043 48.9871V42.5076C53.3043 42.4164 53.3043 42.3192 53.2982 42.2219C53.28 41.5958 53.1645 40.9151 52.739 40.8239C52.7086 40.8239 52.6721 40.8117 52.6357 40.8117H52.0886V39.8939H52.0947C52.2527 39.8939 54.7388 39.8757 57.8083 38.9761V48.9871C57.8083 49.9657 58.404 50.1238 59.0179 50.1238Z" fill="#E75837"/>
<path d="M37.9257 46.6286C37.5853 49.4186 35.7193 51.4062 32.5464 51.4062C28.8143 51.4062 26 48.6406 26 44.9084C26 41.1763 28.9845 38.2466 32.6193 38.2466C35.7436 38.2466 36.2785 39.9668 36.7161 38.2466H37.6279V42.9938H36.7161C36.7161 42.9938 36.7161 42.6473 36.631 42.1732C36.6189 42.1124 36.6067 42.0516 36.5946 41.9908C36.5034 41.5532 36.3393 41.0365 36.0536 40.5989C36.0232 40.5624 35.9989 40.526 35.9746 40.4895C35.9502 40.453 35.9259 40.4166 35.8955 40.3801C35.1418 39.4623 34.2301 38.9213 33.3426 38.9213C31.6711 38.9213 30.4858 40.9332 30.4858 43.5287C30.4858 46.4341 32.206 48.8351 34.6069 48.8351C36.1083 48.8351 37.0991 48.1117 37.5853 46.5557L37.9257 46.6286Z" fill="#E75837"/>
<path d="M78.8388 48.9324C78.3586 49.9232 76.9728 51.4063 75.131 51.4063C72.5174 51.4063 70.9613 49.7591 70.9613 47.3338V39.1888H66.4755V47.1636C66.4755 49.601 68.53 48.902 69.2229 48.3124L69.8429 48.9324C69.3627 49.9232 67.9768 51.4063 66.1351 51.4063C63.5214 51.4063 61.9653 49.7591 61.9653 47.3338V39.1888H60.1479V38.271C61.9775 37.5295 63.8861 36.4475 65.5516 34.8611H65.5576L66.4755 34.855V38.271H68.0133C68.9129 38.271 69.9158 38.1069 72.2377 36.6663C73.034 36.1557 73.8181 35.5601 74.5475 34.8611H74.5536L75.4714 34.855V38.271H78.5957V39.1888H75.4714V47.1636C75.4714 49.601 77.5259 48.902 78.2188 48.3124L78.8388 48.9324Z" fill="#E75837"/>
<path d="M51.3954 40.2156C51.3954 40.4952 51.3346 40.7627 51.2313 41.0058C50.9456 41.6562 50.3073 42.1242 49.5597 42.1668C49.5232 42.1728 49.4807 42.1728 49.4442 42.1728C49.0066 42.1728 48.6054 42.033 48.2772 41.7838C48.2286 41.7413 48.1799 41.7048 48.1313 41.6683C47.6937 41.3644 47.1831 41.3097 46.709 41.5285C46.5813 41.5893 46.4537 41.6683 46.3321 41.7717C46.2713 41.8203 46.2045 41.8811 46.1498 41.9479C46.089 42.0087 46.0343 42.0756 45.9735 42.1485C45.8884 42.2579 45.8154 42.3917 45.7425 42.5132C45.39 43.1758 45.1468 44.1301 45.1468 45.4248V48.9867C45.1468 49.9714 45.7486 50.1233 46.3564 50.1233H47.0372V51.0411H39.4271V50.1233C40.041 50.1233 40.6367 49.9714 40.6367 48.9867V42.4889C40.6367 41.5893 40.5942 40.8113 40.0775 40.8113H39.4271V39.8935C39.4271 39.8935 39.4393 39.8935 39.4575 39.8874C39.7736 39.8448 42.3569 39.4619 44.8064 38.2462H45.1468V42.1728C45.1468 42.1728 45.3717 41.176 45.9978 40.1913C46.0464 40.1062 46.1072 40.015 46.168 39.9299C46.478 39.4741 46.8913 39.0425 47.4019 38.7264C47.8274 38.459 48.2772 38.3009 48.7027 38.2584C48.7878 38.2462 49.4989 38.2219 49.8697 38.3131C50.204 38.3982 50.5079 38.5501 50.7511 38.7811C50.7997 38.8176 50.8483 38.8662 50.8969 38.9148C51.0003 39.0243 51.0854 39.1519 51.1583 39.2856C51.3103 39.5652 51.3954 39.8813 51.3954 40.2156Z" fill="#E75837"/>
<path d="M105 40.2156C105 40.4952 104.939 40.7627 104.836 41.0058C104.55 41.6562 103.912 42.1242 103.164 42.1668C103.128 42.1728 103.085 42.1728 103.049 42.1728C102.611 42.1728 102.21 42.033 101.882 41.7838C101.833 41.7413 101.785 41.7048 101.736 41.6683C101.298 41.3644 100.788 41.3097 100.314 41.5285C100.186 41.5893 100.058 41.6683 99.9367 41.7717C99.876 41.8203 99.8091 41.8811 99.7544 41.9479C99.6936 42.0087 99.6389 42.0756 99.5781 42.1485C99.493 42.2579 99.4201 42.3917 99.3471 42.5132C98.9946 43.1758 98.7515 44.1301 98.7515 45.4248V48.9867C98.7515 49.9714 99.3532 50.1233 99.9611 50.1233H100.642V51.0411H93.0317V50.1233C93.6457 50.1233 94.2413 49.9714 94.2413 48.9867V42.4889C94.2413 41.5893 94.1988 40.8113 93.6821 40.8113H93.0317V39.8935C93.0317 39.8935 93.0439 39.8935 93.0621 39.8874C93.3782 39.8448 95.9615 39.4619 98.4111 38.2462H98.7515V42.1728C98.7515 42.1728 98.9764 41.176 99.6024 40.1913C99.6511 40.1062 99.7118 40.015 99.7726 39.9299C100.083 39.4741 100.496 39.0425 101.007 38.7264C101.432 38.459 101.882 38.3009 102.307 38.2584C102.392 38.2462 103.104 38.2219 103.474 38.3131C103.809 38.3982 104.113 38.5501 104.356 38.7811C104.404 38.8176 104.453 38.8662 104.502 38.9148C104.605 39.0243 104.69 39.1519 104.763 39.2856C104.915 39.5652 105 39.8813 105 40.2156Z" fill="#E75837"/>
<path d="M55.5529 37.4624C57.0534 37.4624 58.2699 36.2459 58.2699 34.7453C58.2699 33.2448 57.0534 32.0283 55.5529 32.0283C54.0523 32.0283 52.8358 33.2448 52.8358 34.7453C52.8358 36.2459 54.0523 37.4624 55.5529 37.4624Z" fill="#E75837"/>
<path d="M37.776 114V103.808H34V102.4H43.184V103.808H39.408V114H37.776Z" fill="#17000B"/>
<path d="M48.4644 114V112.768C47.9684 113.584 47.1844 114.208 45.7604 114.208C43.7604 114.208 43.0084 112.864 43.0084 110.896V105.392H44.4644V110.464C44.4644 111.792 44.6884 112.944 46.2724 112.944C47.6484 112.944 48.4644 111.968 48.4644 110.128V105.392H49.9204V114H48.4644Z" fill="#17000B"/>
<path d="M55.8141 114.208C53.0621 114.208 51.6381 112.256 51.6381 109.712C51.6381 106.992 53.3821 105.248 55.7661 105.248C58.4221 105.248 59.9261 107.456 59.7341 110.176H53.2221C53.2221 111.888 54.3741 112.928 55.7821 112.928C57.1261 112.928 57.7501 112.352 58.1181 111.504H59.6221C59.2221 112.992 57.9421 114.208 55.8141 114.208ZM55.7661 106.496C54.2941 106.496 53.3021 107.376 53.2381 108.928H58.1981C58.1661 107.712 57.3341 106.496 55.7661 106.496Z" fill="#17000B"/>
<path d="M67.9921 107.904H66.4721C66.2481 106.88 65.4481 106.48 64.3761 106.48C63.4641 106.48 62.5041 106.784 62.5041 107.568C62.5041 108.256 62.9841 108.544 63.8801 108.736L65.0961 108.976C66.7281 109.296 68.1041 109.872 68.1041 111.536C68.1041 113.232 66.5681 114.208 64.5361 114.208C62.2161 114.208 60.9361 112.72 60.7761 111.216H62.3121C62.5361 112.32 63.2241 112.976 64.5681 112.976C65.7361 112.976 66.6321 112.496 66.6321 111.696C66.6321 110.832 65.8161 110.464 64.8241 110.272L63.5441 110.016C62.3121 109.76 61.0321 109.232 61.0321 107.632C61.0321 106.112 62.5681 105.232 64.5361 105.232C66.4561 105.232 67.7201 106.272 67.9921 107.904Z" fill="#17000B"/>
<path d="M75.7424 106.752V102.4H77.1984V114H75.7424V112.704C75.2144 113.616 74.3024 114.208 72.9264 114.208C70.8944 114.208 69.2944 112.576 69.2944 109.728C69.2944 106.896 70.8944 105.248 72.9264 105.248C74.3024 105.248 75.2144 105.84 75.7424 106.752ZM75.8064 109.728C75.8064 107.456 74.5904 106.496 73.2944 106.496C71.7424 106.496 70.8784 107.68 70.8784 109.728C70.8784 111.776 71.7424 112.96 73.2944 112.96C74.5904 112.96 75.8064 112 75.8064 109.728Z" fill="#17000B"/>
<path d="M84.9357 110.144V109.856C82.2957 110.128 80.6157 110.48 80.6157 111.696C80.6157 112.512 81.2398 113.056 82.2798 113.056C83.6398 113.056 84.9357 112.432 84.9357 110.144ZM81.9598 114.208C80.3438 114.208 78.9997 113.312 78.9997 111.76C78.9997 109.696 81.2877 109.104 84.8237 108.704V108.464C84.8237 106.848 83.9437 106.4 82.8237 106.4C81.4957 106.4 80.8078 107.056 80.7438 108.112H79.2397C79.3837 106.256 81.0478 105.216 82.8398 105.216C85.2238 105.216 86.2958 106.272 86.2798 108.736L86.2638 110.752C86.2478 112.192 86.3278 113.184 86.4878 114H85.0158C84.9678 113.68 84.9198 113.248 84.9038 112.736C84.3758 113.632 83.4798 114.208 81.9598 114.208Z" fill="#17000B"/>
<path d="M93.1391 105.392H94.6591L91.5871 114.368C90.9631 116.24 90.5151 116.8 88.5951 116.8H87.8431V115.584H88.4351C89.3951 115.584 89.8591 115.52 90.2431 114.176L90.3071 114L87.2031 105.392H88.8191L91.0111 112.032L93.1391 105.392Z" fill="#17000B"/>
<path d="M93.8525 114V112.16H95.6925V114.128L94.7165 116.224H93.7885L94.6365 114H93.8525Z" fill="#17000B"/>
<path d="M101.907 114V102.4H109.443V103.808H103.539V107.328H109.107V108.736H103.539V114H101.907Z" fill="#17000B"/>
<path d="M114.22 114.208C111.468 114.208 110.044 112.256 110.044 109.712C110.044 106.992 111.788 105.248 114.172 105.248C116.828 105.248 118.332 107.456 118.14 110.176H111.628C111.628 111.888 112.78 112.928 114.188 112.928C115.532 112.928 116.156 112.352 116.524 111.504H118.028C117.628 112.992 116.348 114.208 114.22 114.208ZM114.172 106.496C112.7 106.496 111.708 107.376 111.644 108.928H116.604C116.572 107.712 115.74 106.496 114.172 106.496Z" fill="#17000B"/>
<path d="M121.247 109.728C121.247 112 122.463 112.96 123.759 112.96C125.311 112.96 126.175 111.776 126.175 109.728C126.175 107.68 125.311 106.496 123.759 106.496C122.463 106.496 121.247 107.456 121.247 109.728ZM119.855 102.4H121.311V106.752C121.839 105.84 122.751 105.248 124.127 105.248C126.159 105.248 127.759 106.896 127.759 109.728C127.759 112.576 126.159 114.208 124.127 114.208C122.751 114.208 121.839 113.616 121.311 112.704V114H119.855V102.4Z" fill="#17000B"/>
<path d="M134.285 114L138.973 103.856H132.813V102.576H140.477V103.664L135.837 114H134.285Z" fill="#17000B"/>
<circle cx="251.5" cy="109.5" r="11.5" fill="#E75837"/>
<path fill-rule="evenodd" clip-rule="evenodd" d="M257.224 115.223C256.934 115.512 256.463 115.512 256.173 115.223L253.418 112.467C252.565 113.107 251.5 113.487 250.358 113.487C247.526 113.487 245.228 111.188 245.228 108.357C245.228 105.525 247.526 103.227 250.358 103.227C253.189 103.227 255.488 105.525 255.488 108.357C255.488 109.499 255.108 110.564 254.468 111.417L257.224 114.172C257.513 114.462 257.513 114.933 257.224 115.223ZM250.358 104.688C248.333 104.688 246.689 106.332 246.689 108.357C246.689 110.382 248.333 112.026 250.358 112.026C252.383 112.026 254.027 110.382 254.027 108.357C254.027 106.332 252.383 104.688 250.358 104.688Z" fill="#FBF8F3"/>
<circle cx="342.5" cy="45.5" r="11.5" fill="#E75837"/>
<path d="M342.431 39C338.872 39 335.983 41.8887 335.983 45.4479C335.983 49.0072 338.872 51.8958 342.431 51.8958C343.17 51.8958 343.892 51.7755 344.597 51.5176L348.122 52.1366C348.139 52.1366 348.157 52.1366 348.174 52.1366C348.26 52.1366 348.329 52.1022 348.38 52.0334C348.432 51.9646 348.449 51.8615 348.415 51.7755L347.452 49.4886C347.881 48.9728 348.208 48.3882 348.449 47.7864C348.741 47.0298 348.896 46.2561 348.896 45.4307C348.879 41.8887 345.99 39 342.431 39Z" fill="white"/>
<path d="M345.44 44.6055C344.907 44.6055 344.477 45.0353 344.477 45.5684C344.477 46.1014 344.907 46.5312 345.44 46.5312C345.973 46.5312 346.403 46.1014 346.403 45.5684C346.403 45.0353 345.973 44.6055 345.44 44.6055ZM345.44 46.0154C345.199 46.0154 344.993 45.8091 344.993 45.5684C344.993 45.3276 345.182 45.1213 345.44 45.1213C345.698 45.1213 345.887 45.3276 345.887 45.5684C345.887 45.8091 345.698 46.0154 345.44 46.0154Z" fill="white"/>
<path d="M342.431 44.6055C341.898 44.6055 341.468 45.0353 341.468 45.5684C341.468 46.1014 341.898 46.5312 342.431 46.5312C342.964 46.5312 343.394 46.1014 343.394 45.5684C343.394 45.0353 342.964 44.6055 342.431 44.6055ZM342.431 46.0154C342.19 46.0154 341.984 45.8091 341.984 45.5684C341.984 45.3276 342.19 45.1213 342.431 45.1213C342.671 45.1213 342.878 45.3276 342.878 45.5684C342.878 45.8091 342.671 46.0154 342.431 46.0154Z" fill="white"/>
<path d="M339.422 44.6055C338.889 44.6055 338.459 45.0353 338.459 45.5684C338.459 46.1014 338.889 46.5312 339.422 46.5312C339.955 46.5312 340.368 46.1014 340.368 45.5684C340.368 45.0353 339.938 44.6055 339.422 44.6055ZM339.422 46.0154C339.181 46.0154 338.975 45.8091 338.975 45.5684C338.975 45.3276 339.181 45.1213 339.422 45.1213C339.663 45.1213 339.852 45.3276 339.852 45.5684C339.852 45.8091 339.663 46.0154 339.422 46.0154Z" fill="white"/>
<circle cx="339.117" cy="45.4774" r="1.04474" fill="#E75837"/>
<circle cx="342.46" cy="45.4774" r="1.04474" fill="#E75837"/>
<circle cx="345.803" cy="45.4774" r="1.04474" fill="#E75837"/>
<circle cx="286" cy="109.5" r="11.5" fill="#E75837"/>
<path d="M283.077 106.38C283.077 108.116 284.49 109.531 286.228 109.531C287.967 109.531 289.38 108.116 289.38 106.38C289.38 104.643 287.965 103.229 286.228 103.229C284.492 103.229 283.077 104.643 283.077 106.38Z" fill="#FBF8F3"/>
<path d="M286.258 110.283C283.182 110.283 280.773 112.398 280.773 115.095V115.354H291.742V115.095C291.742 112.396 289.333 110.283 286.258 110.283Z" fill="#FBF8F3"/>
<circle cx="342.5" cy="109.5" r="11.5" fill="#E75837"/>
<path d="M342.748 103.75V109.226M342.748 109.226V114.702M342.748 109.226H348.224M342.748 109.226H337.273" stroke="#FBF8F3" stroke-width="1.4863" stroke-miterlimit="10" stroke-linecap="round"/>
</g>
</svg>
