<svg width="80" height="80" viewBox="0 0 80 80" fill="none" xmlns="http://www.w3.org/2000/svg">
<path d="M70.359 77.4603C70.359 77.8303 70.0589 78.1203 69.6889 78.1203L52.079 77.9903C52.209 68.0903 52.039 60.5403 49.989 50.8803C49.489 48.5003 48.839 46.0903 47.519 44.0403C46.189 41.9903 44.069 40.3203 41.639 40.1003C39.459 39.9103 37.2789 40.8803 35.6789 42.3903C34.0689 43.8803 32.969 45.8403 32.099 47.8603C30.689 51.1503 29.8289 54.6203 29.1489 58.1403C27.7189 65.4003 26.9989 70.4203 27.0289 77.8103L11.709 77.6903C11.369 77.6903 11.0789 77.4203 11.0689 77.0703C10.1289 60.1403 9.76894 43.1703 10.0389 26.2203C19.6889 17.9303 29.6689 10.0403 39.9789 2.58028C41.0889 1.77028 42.629 1.87028 43.629 2.81028C52.679 11.2303 61.6089 19.6003 70.2589 28.4403C70.2889 47.7103 70.349 73.1003 70.359 77.4803V77.4603Z" fill="#F4BAEA"/>
<path d="M69.6988 79.1102L51.0788 78.9702V77.9602C51.2088 68.8002 51.1388 61.0102 49.0288 51.0702C48.5588 48.8402 47.9488 46.5002 46.6988 44.5602C45.3988 42.5602 43.4788 41.2502 41.5588 41.0702C39.8188 40.9202 37.8888 41.6702 36.3788 43.0902C35.0888 44.2802 34.0288 45.9102 33.0388 48.2202C31.5388 51.7202 30.7088 55.4403 30.1488 58.2902C28.7288 65.5003 28.0188 70.4902 28.0488 77.7702V78.7802L11.7188 78.6502C10.8288 78.6502 10.1088 77.9502 10.0788 77.0602C9.12884 60.0502 8.77884 42.9202 9.04884 26.1602V25.7102L9.39883 25.4202C19.0588 17.1202 29.1588 9.15025 39.3988 1.73025C40.8888 0.650248 42.9688 0.780248 44.3188 2.04025C53.4888 10.5702 62.4288 18.9502 70.9888 27.7002L71.2688 27.9902V28.4002C71.2988 47.6702 71.3589 73.0602 71.3689 77.4402C71.3689 78.3602 70.6188 79.1002 69.6988 79.1002V79.1102ZM53.0988 76.9902L69.3588 77.1102C69.3488 71.9102 69.2988 47.5902 69.2688 28.8302C60.8188 20.2102 51.9988 11.9402 42.9488 3.52025C42.2888 2.91025 41.2888 2.84025 40.5588 3.37025C30.4788 10.6602 20.5388 18.5002 11.0288 26.6602C10.7788 43.1202 11.1188 59.9502 12.0488 76.6702L26.0388 76.7802C26.0788 69.8802 26.7988 64.9202 28.1788 57.9202C28.7588 54.9702 29.6188 51.1203 31.1888 47.4403C32.2988 44.8603 33.5088 43.0202 35.0088 41.6302C36.9488 39.8002 39.4088 38.8703 41.7388 39.0802C44.2588 39.3102 46.7388 40.9603 48.3688 43.4702C49.7988 45.6802 50.4688 48.2302 50.9788 50.6502C53.0488 60.4302 53.1988 68.1302 53.0988 76.9802V76.9902ZM12.0688 76.9802C12.0688 76.9802 12.0688 76.9802 12.0688 76.9902C12.0688 76.9902 12.0688 76.9902 12.0688 76.9802Z" fill="#17000B"/>
<path d="M78.9289 39.3201C78.6189 39.3201 78.3089 39.1701 78.1089 38.9001C75.7589 35.5701 72.9489 32.6101 70.0389 29.6301C69.9489 29.5401 69.8789 29.4601 69.8089 29.3901C69.7189 29.3001 69.6289 29.2101 69.5389 29.1101C69.1589 28.7101 69.1789 28.0701 69.5889 27.7001C69.9889 27.3201 70.6289 27.3401 70.9989 27.7501C71.0689 27.8301 71.1489 27.9001 71.2289 27.9801C71.3189 28.0701 71.4089 28.1601 71.4989 28.2501C74.4589 31.2801 77.3289 34.3101 79.7589 37.7501C80.0789 38.2001 79.9689 38.8301 79.5189 39.1401C79.3389 39.2601 79.1389 39.3201 78.9389 39.3201H78.9289Z" fill="#17000B"/>
<path d="M0.998703 35.1903C0.728703 35.1903 0.458698 35.0803 0.258698 34.8603C-0.111302 34.4503 -0.0812947 33.8203 0.328705 33.4503C3.22871 30.8103 6.2787 28.1103 9.3887 25.4403C9.8087 25.0803 10.4387 25.1303 10.7987 25.5503C11.1587 25.9703 11.1087 26.6003 10.6887 26.9603C7.59871 29.6203 4.5587 32.3003 1.6687 34.9303C1.4787 35.1003 1.2387 35.1903 0.998703 35.1903Z" fill="#17000B"/>
<path d="M52.089 77.9806L27.039 77.7906C27.009 70.3906 27.729 65.3806 29.159 58.1206C29.849 54.6106 30.709 51.1306 32.109 47.8406C32.979 45.8206 34.079 43.8706 35.689 42.3706C37.289 40.8706 39.469 39.8906 41.649 40.0806C44.089 40.3106 46.199 41.9706 47.529 44.0206C48.849 46.0706 49.489 48.4806 49.999 50.8606C52.049 60.5206 52.219 68.0706 52.089 77.9706V77.9806Z" fill="#94ABD6"/>
<path d="M53.0789 78.9905L26.0489 78.7805V77.7905C26.0089 70.3505 26.7389 65.2605 28.1789 57.9205C28.7589 54.9705 29.6189 51.1205 31.1889 47.4405C32.2989 44.8605 33.5089 43.0205 35.0089 41.6305C36.9489 39.8005 39.4089 38.8705 41.7389 39.0805C44.2589 39.3105 46.7389 40.9605 48.3689 43.4705C49.7989 45.6805 50.4689 48.2305 50.9789 50.6505C53.1289 60.7905 53.2089 68.7005 53.0889 77.9905V78.9805L53.0789 78.9905ZM28.0289 76.8005L51.0889 76.9805C51.1889 68.2505 51.0389 60.6605 49.0089 51.0805C48.5389 48.8505 47.9289 46.5105 46.6789 44.5705C45.3789 42.5705 43.4589 41.2605 41.5389 41.0805C39.7989 40.9305 37.8689 41.6805 36.3589 43.1005C35.0689 44.2905 34.0089 45.9205 33.0189 48.2305C31.5189 51.7305 30.6889 55.4505 30.1289 58.3005C28.7789 65.1805 28.0589 70.0405 28.0289 76.7905V76.8005Z" fill="#17000B"/>
<path d="M37.0088 16.2706C35.3188 17.2006 34.0188 18.8306 33.4988 20.6906C33.1788 21.8106 33.1388 22.9906 33.1888 24.1606C33.2388 25.3506 33.3788 26.5706 33.9088 27.6406C34.9588 29.7806 37.3788 30.9506 39.7388 31.2406C41.2388 31.4206 42.8088 31.3006 44.1788 30.6606C46.4888 29.5906 47.9588 27.2106 48.5988 24.7506C48.9288 23.4606 49.0688 22.0906 48.7088 20.8106C47.4688 16.3906 40.8188 14.1906 37.0088 16.2706Z" fill="#94ABD6"/>
<path d="M40.9586 32.3004C40.5186 32.3004 40.0686 32.2704 39.6186 32.2204C36.5786 31.8504 34.1086 30.3004 33.0086 28.0704C32.3686 26.7604 32.2286 25.3104 32.1886 24.1904C32.1286 22.6504 32.2386 21.4904 32.5386 20.4104C33.1386 18.2804 34.5986 16.4504 36.5386 15.3804C38.7386 14.1704 41.8486 14.1504 44.6486 15.3304C47.2186 16.4104 49.0586 18.3004 49.6786 20.5204C50.0486 21.8304 50.0086 23.2904 49.5686 24.9804C48.7686 28.0604 46.9586 30.4604 44.5986 31.5504C43.5286 32.0404 42.2886 32.3004 40.9586 32.3004ZM40.4186 16.4704C39.3286 16.4704 38.3086 16.6904 37.4986 17.1404C36.0486 17.9404 34.9186 19.3604 34.4686 20.9604C34.2286 21.8204 34.1386 22.7904 34.1986 24.1204C34.2386 25.1004 34.3386 26.2304 34.8186 27.1904C35.7586 29.1004 38.0486 30.0204 39.8686 30.2404C41.3386 30.4204 42.6886 30.2404 43.7686 29.7504C45.5786 28.9104 46.9886 27.0004 47.6386 24.5004C47.9886 23.1604 48.0286 22.0404 47.7586 21.0804C47.2986 19.4604 45.8886 18.0404 43.8786 17.2004C42.7486 16.7304 41.5486 16.4904 40.4186 16.4904V16.4704Z" fill="#17000B"/>
</svg>
