<svg width="80" height="80" viewBox="0 0 80 80" fill="none" xmlns="http://www.w3.org/2000/svg">
<path d="M40.4445 76.2751C40.0745 76.5551 39.5745 76.5651 39.1945 76.2851C35.9145 73.8751 32.4445 71.7051 29.4745 68.9251C26.3145 65.9651 23.7045 62.1351 23.3045 57.8251C23.1745 56.4651 23.2845 55.0651 23.7545 53.7851C25.1445 50.0251 29.7846 47.9951 33.6346 49.1051C37.4846 50.2151 40.1545 53.8751 40.6245 57.7751C40.6245 57.8251 40.7045 57.8351 40.7145 57.7751C41.4645 55.4051 41.7246 54.3051 43.2446 52.2351C44.7646 50.1651 47.3045 48.4551 49.9445 48.5851C52.9145 48.7251 55.5645 51.1351 56.3046 54.0251C58.0046 60.6951 52.1745 66.0651 50.0345 68.1451C47.1045 70.9951 43.6945 73.7551 40.4345 76.2751H40.4445Z" fill="#E75837"/>
<path d="M39.8145 77.485C39.3845 77.485 38.9645 77.355 38.6045 77.085C37.6845 76.405 36.7445 75.745 35.8045 75.085C33.4245 73.415 30.9745 71.685 28.7945 69.645C26.1045 67.125 22.7845 63.035 22.3145 57.905C22.1645 56.255 22.3345 54.755 22.8245 53.425C24.3545 49.265 29.4445 46.835 33.9245 48.135C36.9445 49.005 39.4845 51.445 40.7845 54.505C41.1545 53.625 41.6445 52.755 42.4545 51.645C44.4245 48.975 47.2645 47.445 50.0145 47.585C53.3545 47.745 56.4245 50.345 57.2945 53.775C59.0845 60.805 53.3945 66.305 50.9645 68.655L50.7545 68.855C47.5945 71.925 43.9145 74.855 41.0645 77.055C40.7045 77.335 40.2645 77.475 39.8245 77.475L39.8145 77.485ZM31.4445 49.795C28.5345 49.795 25.6445 51.535 24.6945 54.125C24.3145 55.165 24.1745 56.385 24.3045 57.725C24.7245 62.225 27.7245 65.905 30.1645 68.185C32.2445 70.125 34.6345 71.815 36.9545 73.445C37.9045 74.115 38.8545 74.785 39.7945 75.475H39.8345C42.6445 73.305 46.2645 70.425 49.3545 67.415L49.5645 67.205C51.7445 65.095 56.8545 60.165 55.3445 54.265C54.6945 51.715 52.3545 49.695 49.9045 49.585C47.4545 49.475 45.2645 51.185 44.0545 52.835C42.7645 54.585 42.4645 55.545 41.8645 57.465L41.4345 58.845L39.7745 58.725L39.6345 57.885C39.1945 54.215 36.6145 50.995 33.3645 50.055C32.7345 49.875 32.0945 49.785 31.4445 49.785V49.795Z" fill="#17000B"/>
<path d="M40.6245 58.7748C40.0845 58.7748 39.6445 58.3448 39.6245 57.8048C39.3545 49.3148 39.3345 44.3048 39.3145 35.4648C39.3145 34.9148 39.7645 34.4648 40.3145 34.4648C40.8645 34.4648 41.3145 34.9148 41.3145 35.4648C41.3345 44.2848 41.3545 49.2748 41.6245 57.7448C41.6445 58.2948 41.2045 58.7548 40.6545 58.7748C40.6445 58.7748 40.6345 58.7748 40.6245 58.7748Z" fill="#17000B"/>
<path d="M78.4542 23.385C77.5042 18.955 74.4942 15.215 70.9742 12.385C63.7342 6.55498 54.2742 3.56498 44.9942 3.09498C36.6742 2.68498 28.3042 3.60498 20.2742 5.80498C16.1442 6.94498 12.0542 8.44498 8.58424 10.955C5.10424 13.455 2.27424 17.055 1.39424 21.245C1.09424 22.625 1.02424 24.055 1.00424 25.465C0.974235 27.805 1.10424 30.145 1.37424 32.465C1.57424 34.145 2.43424 35.675 3.77424 36.695C5.71424 38.185 7.96424 39.245 10.3042 40.055C24.9342 45.115 40.8342 45.205 56.2542 43.825C57.8742 43.675 59.5042 43.515 61.1042 43.285C62.2642 43.125 63.4042 42.925 64.5442 42.655C65.3042 42.495 66.0542 42.305 66.8042 42.085C70.2242 41.065 73.7642 39.815 76.1042 37.115C76.9442 36.155 77.7942 35.165 78.2542 33.975C78.6442 32.915 78.7042 31.755 78.7542 30.615C78.8642 28.185 78.9542 25.755 78.4542 23.385ZM62.2042 26.765C61.0042 27.115 59.7842 27.425 58.5642 27.685C57.9942 27.815 57.4042 27.925 56.8242 28.045C42.0842 30.865 26.5142 29.715 12.5742 24.255C13.0942 23.535 13.7142 22.875 14.3542 22.245C21.2342 15.545 31.4142 13.385 41.0242 13.305C45.3242 13.285 62.0142 14.235 68.8942 24.225C66.7742 25.295 64.5242 26.115 62.2142 26.765H62.2042Z" fill="#DBD1C1" stroke="#17000B" stroke-width="2" stroke-miterlimit="10" stroke-linecap="round"/>
<path d="M72.9445 21.7446C71.6645 22.6946 70.3045 23.5146 68.8945 24.2246L72.9445 21.7446Z" fill="#DBD1C1"/>
<path d="M68.8944 25.2248C68.5244 25.2248 68.1744 25.0248 68.0044 24.6748C67.7544 24.1848 67.9544 23.5848 68.4444 23.3348C69.8544 22.6248 71.1744 21.8248 72.3544 20.9448C72.7944 20.6148 73.4244 20.7048 73.7544 21.1548C74.0844 21.5948 73.9944 22.2248 73.5444 22.5548C72.2744 23.5048 70.8544 24.3648 69.3444 25.1248C69.2044 25.1948 69.0444 25.2348 68.8944 25.2348V25.2248Z" fill="#17000B"/>
<path d="M12.5742 25.255C12.4542 25.255 12.3342 25.235 12.2142 25.185C10.0142 24.325 7.84419 23.355 5.76419 22.285C5.27419 22.035 5.07419 21.435 5.32419 20.935C5.57419 20.435 6.17419 20.245 6.67419 20.495C8.70419 21.535 10.8142 22.475 12.9442 23.315C13.4542 23.515 13.7142 24.095 13.5142 24.615C13.3642 25.015 12.9842 25.255 12.5842 25.255H12.5742Z" fill="#17000B"/>
<path d="M54.3843 40.0851C53.9743 40.0851 53.5443 39.9951 53.1143 39.8051C52.4143 39.5051 51.8543 38.8951 51.5743 38.1151C51.0243 36.5851 51.6643 34.5451 52.9243 33.7551C53.9043 33.1451 55.0543 33.3551 55.9943 34.3251C57.1443 35.5151 57.3443 37.6551 56.4243 38.9951C55.9343 39.7051 55.2143 40.0751 54.3843 40.0751V40.0851ZM54.0943 35.4251C54.0443 35.4251 54.0043 35.4451 53.9843 35.4551C53.5543 35.7251 53.2143 36.7551 53.4543 37.4451C53.5443 37.6851 53.7043 37.8851 53.8943 37.9651C54.5243 38.2351 54.6843 37.9951 54.7743 37.8751C55.1243 37.3651 55.0943 36.2751 54.5543 35.7251C54.3243 35.4851 54.1743 35.4251 54.0843 35.4251H54.0943Z" fill="#17000B"/>
<path d="M68.9941 42.3051C68.8541 42.3051 68.7241 42.2751 68.5941 42.2151C68.0941 41.9951 67.8641 41.4051 68.0841 40.8951C68.9141 39.0151 69.7041 37.1051 70.4341 35.2151C70.8141 34.2151 71.1241 33.3251 70.9941 32.5051C70.8841 31.7851 70.4141 31.0851 69.9641 30.4051L66.9341 25.8251C66.6341 25.3651 66.7541 24.7451 67.2141 24.4351C67.6741 24.1351 68.2941 24.2551 68.6041 24.7151L71.6341 29.2951C72.1441 30.0751 72.7841 31.0351 72.9641 32.1851C73.1741 33.4951 72.7641 34.7051 72.2941 35.9251C71.5541 37.8451 70.7541 39.7951 69.9041 41.6951C69.7341 42.0651 69.3741 42.2951 68.9941 42.2951V42.3051Z" fill="#17000B"/>
<path d="M64.5441 43.6552C64.0441 43.6552 63.6041 43.2752 63.5541 42.7552C62.9941 37.4352 62.2041 32.1152 61.2241 26.9452C61.1241 26.4052 61.4741 25.8752 62.0241 25.7752C62.5741 25.6652 63.0941 26.0252 63.1941 26.5752C64.1841 31.7952 64.9741 37.1752 65.5441 42.5552C65.6041 43.1052 65.2041 43.5952 64.6541 43.6552C64.6141 43.6552 64.5841 43.6552 64.5441 43.6552Z" fill="#17000B"/>
</svg>
