<svg width="80" height="80" viewBox="0 0 80 80" fill="none" xmlns="http://www.w3.org/2000/svg">
<path d="M77.9222 21.426C73.0622 14.976 68.5022 8.38601 62.9722 2.49601C61.8122 1.26601 59.5322 0.726005 57.9622 1.33601C56.5022 1.90601 55.3122 2.99601 54.1622 4.05601C38.4822 18.616 23.4322 33.826 8.56223 49.206C5.82223 52.036 3.02223 54.996 1.68223 58.696C0.342225 62.396 1.93223 67.626 4.90223 70.266C7.17223 72.286 9.03222 74.806 11.3922 76.706C13.5922 78.476 16.3922 80.176 19.2522 77.716C20.3022 76.816 21.0022 75.576 21.4022 74.246C24.8522 62.776 28.7022 51.426 32.9322 40.216C33.2522 39.366 33.8522 38.336 34.7522 38.486C35.3022 38.576 35.6622 39.086 35.9622 39.546C38.7622 43.826 41.8622 47.906 45.2522 51.736C45.3722 51.866 45.5722 51.876 45.7022 51.756L77.8922 21.826C78.0122 21.716 78.0222 21.546 77.9322 21.416L77.9222 21.426Z" fill="#F4BAEA"/>
<path d="M16.2321 79.9459C13.8221 79.9459 11.7521 78.2859 10.7721 77.4959C9.41208 76.3959 8.21209 75.1159 7.06209 73.8759C6.16209 72.9059 5.22208 71.8959 4.24208 71.0259C0.872082 68.0359 -0.697918 62.3559 0.742082 58.3659C2.18208 54.3759 5.19209 51.2659 7.84209 48.5159C20.9421 34.9559 36.6021 18.9859 53.4721 3.32594C54.6221 2.25594 55.9221 1.05594 57.5921 0.405937C59.5221 -0.344063 62.2621 0.285937 63.6921 1.81594C68.1021 6.50594 71.9521 11.7159 75.6821 16.7559C76.6821 18.1159 77.6921 19.4759 78.7121 20.8259C79.1121 21.3659 79.0521 22.1159 78.5521 22.5759L46.3721 52.5059C46.1121 52.7459 45.7621 52.8659 45.4121 52.8559C45.0621 52.8359 44.7221 52.6759 44.4921 52.4159C41.0821 48.5559 37.9321 44.4159 35.1221 40.1159C34.8021 39.6159 34.6521 39.5059 34.5821 39.4959C34.5221 39.4959 34.1821 39.7359 33.8621 40.5859C29.6621 51.7259 25.7921 63.1559 22.3621 74.5559C21.8821 76.1659 21.0321 77.5259 19.9021 78.4959C18.6521 79.5759 17.4021 79.9659 16.2321 79.9659V79.9459ZM59.4021 2.08594C59.0121 2.08594 58.6421 2.14594 58.3221 2.26594C57.0021 2.77594 55.8521 3.84594 54.8321 4.79594C37.9921 20.4259 22.3521 36.3759 9.27208 49.9059C6.76208 52.5059 3.91208 55.4559 2.61208 59.0459C1.44208 62.2759 2.79208 67.0759 5.55208 69.5259C6.61208 70.4659 7.57207 71.5059 8.51207 72.5159C9.67207 73.7559 10.7621 74.9359 12.0121 75.9359C14.4221 77.8759 16.4721 78.7959 18.5921 76.9659C19.4221 76.2459 20.0621 75.2059 20.4421 73.9659C23.8821 62.5259 27.7721 51.0559 31.9921 39.8659C32.9021 37.4459 34.3421 37.4059 34.9221 37.5059C35.9321 37.6759 36.5021 38.5459 36.8021 39.0059C39.4321 43.0359 42.3721 46.9159 45.5321 50.5459L76.7421 21.5259C75.8521 20.3359 74.9621 19.1359 74.0821 17.9459C70.3921 12.9559 66.5621 7.78594 62.2421 3.18594C61.6021 2.50594 60.4421 2.08594 59.4021 2.08594Z" fill="#F4BAEA"/>
<path d="M16.2321 79.956C14.1221 79.956 12.2321 78.666 10.7721 77.496C9.41207 76.396 8.21208 75.116 7.06208 73.876C5.84208 72.566 4.70208 71.336 3.37208 70.296C-0.347923 67.396 -0.597928 62.076 0.742072 58.366C2.18207 54.376 5.19208 51.266 7.84208 48.526C20.9421 34.966 36.6021 18.996 53.4721 3.336C54.6421 2.246 55.9721 1.016 57.6921 0.375998C59.3921 -0.254002 61.7621 -0.194002 63.2421 1.346C67.8421 6.166 71.8321 11.556 75.6821 16.766C76.7421 18.196 77.8021 19.626 78.8721 21.056C79.2021 21.496 79.1121 22.126 78.6721 22.456C78.2321 22.786 77.6021 22.696 77.2721 22.256C76.1921 20.826 75.1321 19.386 74.0721 17.956C70.2521 12.796 66.3021 7.456 61.7921 2.726C60.9521 1.846 59.4321 1.856 58.3921 2.246C57.0421 2.746 55.8721 3.836 54.8321 4.796C37.9921 20.426 22.3521 36.376 9.27207 49.906C6.76207 52.506 3.91207 55.456 2.61207 59.036C1.47207 62.196 1.78208 66.526 4.59208 68.706C6.04208 69.836 7.30207 71.196 8.52207 72.496C9.68207 73.736 10.7721 74.916 12.0221 75.916C13.4221 77.036 15.0721 78.156 16.7021 77.896C19.0621 77.526 20.2521 74.556 21.0321 72.006C24.3221 61.226 28.0121 50.406 31.9921 39.846C32.9021 37.426 34.3421 37.386 34.9221 37.486C35.9321 37.656 36.5021 38.526 36.8021 38.986C39.6221 43.296 42.7821 47.446 46.2121 51.296C46.5821 51.706 46.5421 52.336 46.1321 52.706C45.7221 53.076 45.0921 53.036 44.7221 52.626C41.2321 48.696 38.0121 44.476 35.1321 40.086C34.8121 39.586 34.6621 39.476 34.5921 39.466C34.5321 39.466 34.1921 39.706 33.8721 40.556C29.9021 51.076 26.2321 61.856 22.9521 72.596C22.0021 75.696 20.4721 79.326 17.0221 79.876C16.7521 79.916 16.4921 79.936 16.2321 79.936V79.956Z" fill="#17000B"/>
<path d="M52.5819 49.3161C52.2919 49.3161 52.0019 49.1861 51.8119 48.9461L39.9519 34.4361C39.6019 34.0061 39.6619 33.3761 40.0919 33.0261C40.5219 32.6761 41.1519 32.7361 41.5019 33.1661L53.3619 47.6761C53.7119 48.1061 53.6519 48.7361 53.2219 49.0861C53.0319 49.2361 52.8119 49.3161 52.5919 49.3161H52.5819Z" fill="#17000B"/>
<path d="M59.8019 42.266C59.5819 42.266 59.3519 42.196 59.1719 42.046C59.0919 41.976 59.0219 41.896 58.9619 41.816C58.2219 40.936 50.2919 32.216 45.6519 27.186C45.2819 26.776 45.3019 26.146 45.7119 25.776C46.1219 25.406 46.7519 25.426 47.1219 25.836C49.4619 28.376 52.8319 32.056 55.6019 35.116C56.9919 36.646 58.2319 38.016 59.1219 39.006C61.0119 41.106 61.1719 41.286 60.5319 41.966C60.3319 42.176 60.0719 42.286 59.8019 42.286V42.266Z" fill="#17000B"/>
<path d="M66.2422 37.356C65.9422 37.356 65.6422 37.226 65.4522 36.966C61.4322 31.726 57.2422 26.506 52.9922 21.456C52.6322 21.036 52.6922 20.406 53.1122 20.046C53.5322 19.686 54.1622 19.746 54.5222 20.166C58.7922 25.236 63.0023 30.486 67.0323 35.746C67.3723 36.186 67.2822 36.816 66.8422 37.146C66.6622 37.2859 66.4422 37.356 66.2322 37.356H66.2422Z" fill="#17000B"/>
<path d="M73.082 29.5758C72.772 29.5758 72.462 29.4258 72.262 29.1458C68.782 24.1858 64.952 19.4058 60.892 14.9158C60.522 14.5058 60.552 13.8758 60.962 13.5058C61.372 13.1358 62.002 13.1658 62.372 13.5758C66.492 18.1258 70.372 22.9758 73.892 27.9958C74.212 28.4458 74.102 29.0758 73.652 29.3858C73.482 29.5058 73.272 29.5658 73.082 29.5658V29.5758Z" fill="#17000B"/>
</svg>
