<svg width="80" height="81" viewBox="0 0 80 81" fill="none" xmlns="http://www.w3.org/2000/svg">
<path d="M78.0908 23.8602C78.3808 16.2302 78.5008 8.85022 78.7908 1.22022C78.7908 1.17022 78.7308 1.15022 78.7108 1.19022C66.7808 15.5302 55.2108 30.1702 44.0308 45.1002C46.7908 46.7802 49.0808 48.9402 51.3508 51.2502C51.4408 51.1302 51.4908 50.9702 51.4808 50.8102C51.4608 50.9802 51.4508 51.1602 51.4308 51.3302C59.6108 41.2002 70.0607 34.1402 78.0807 23.8902C78.0807 23.8902 78.0908 23.8702 78.0908 23.8602Z" fill="#DBD1C1"/>
<path d="M50.1405 54.52L50.3905 51.7C48.0505 49.33 45.9605 47.44 43.5005 45.95L42.5605 45.38L43.2206 44.5C54.3706 29.62 66.0505 14.83 77.9305 0.55L78.3905 0L79.7805 0.5V1.26C79.6405 5.04 79.5405 8.77 79.4305 12.5C79.3305 16.28 79.2205 20.05 79.0805 23.9L79.0605 24.22L78.8605 24.5C74.6905 29.82 69.8405 34.34 65.1405 38.71C60.7105 42.82 56.1405 47.08 52.2005 51.96L50.1306 54.53L50.1405 54.52ZM50.5106 50.72H50.6606L50.5505 50.64C50.5305 50.66 50.5205 50.69 50.5005 50.72H50.5106ZM45.4806 44.84C47.5506 46.22 49.3905 47.87 51.3705 49.84C55.2305 45.21 59.5805 41.16 63.8005 37.24C68.3705 32.99 73.0905 28.6 77.1105 23.52C77.2505 19.79 77.3505 16.12 77.4505 12.45C77.5305 9.64 77.6005 6.82 77.7005 3.98C66.6805 17.29 55.8506 31.02 45.4806 44.84Z" fill="#17000B"/>
<path d="M33.2705 43.6203C33.5605 43.6703 33.0705 44.0703 32.9205 43.8203C26.0205 32.6203 17.8105 22.3003 9.62048 12.0103C7.47048 9.31028 5.17048 6.76027 2.99048 4.09027C2.72048 3.76027 2.18048 3.92027 2.15048 4.35027C1.62048 10.8403 1.16049 17.2803 1.00049 23.7903C1.00049 23.9103 1.04048 24.0303 1.12048 24.1203C9.66048 33.8703 18.6005 43.2603 27.9105 52.2803C28.6505 50.4203 30.5205 49.1503 31.3005 47.3103C31.8305 46.0703 32.1505 44.3403 33.2805 43.6103L33.2705 43.6203Z" fill="#DBD1C1"/>
<path d="M28.2805 54.0501L27.2105 53.0101C17.9205 44.0101 8.89053 34.5101 0.370532 24.7901C0.120532 24.5101 -0.00946335 24.1501 0.000536647 23.7701C0.170537 16.8701 0.680531 10.0401 1.15053 4.27009C1.20053 3.67009 1.60053 3.16009 2.18053 2.98009C2.76053 2.80009 3.38055 2.98009 3.76055 3.46009C4.72055 4.64009 5.71054 5.79009 6.69054 6.94009C7.92054 8.38009 9.19053 9.87009 10.4005 11.3901C18.3205 21.3301 26.5005 31.6101 33.3505 42.6201H33.4305C33.9505 42.7201 34.3205 43.1101 34.3605 43.6101C34.4005 44.1501 34.0305 44.6501 33.4605 44.8401C33.4405 44.8401 33.4305 44.8501 33.4105 44.8601C33.0705 45.3201 32.8305 46.0101 32.6005 46.6701C32.4705 47.0301 32.3505 47.3901 32.2105 47.7101C31.7705 48.7501 31.0605 49.5901 30.3805 50.4001C29.7405 51.1501 29.1405 51.8701 28.8305 52.6601L28.2805 54.0501ZM2.00054 23.6201C10.1605 32.9201 18.7805 42.0101 27.6505 50.6501C28.0205 50.1001 28.4405 49.6001 28.8505 49.1101C29.4605 48.3801 30.0405 47.6901 30.3705 46.9301C30.4905 46.6401 30.6005 46.3301 30.7105 46.0101C30.9705 45.2701 31.2505 44.4601 31.7205 43.7801C24.9105 32.8301 16.7405 22.5601 8.84053 12.6301C7.65053 11.1401 6.39053 9.66009 5.18053 8.24009C4.47053 7.40009 3.75052 6.57009 3.05052 5.72009C2.61052 11.1201 2.17055 17.3401 2.01055 23.6201H2.00054Z" fill="#17000B"/>
<path d="M34.6407 40.2798C32.4707 41.1498 30.4707 42.4198 28.5807 43.8198C26.0507 45.6998 23.6508 47.8998 22.0708 50.6798C19.0408 56.0098 19.4707 63.0498 22.5507 68.3498C25.6307 73.6498 31.0708 77.2298 36.8808 78.6498C37.9808 78.9198 39.0908 79.1098 40.2208 79.1498C41.4908 79.1898 42.7707 79.0198 44.0207 78.7598C50.1907 77.4798 56.1307 73.7498 58.9207 67.9198C61.3607 62.8098 61.0908 56.5198 58.6608 51.4098C56.2308 46.2998 51.7708 42.3498 46.6908 40.1498C42.7708 38.4498 38.5907 38.7198 34.6507 40.2998L34.6407 40.2798Z" fill="#E7A937"/>
<path d="M40.5805 80.15C40.4505 80.15 40.3206 80.15 40.1906 80.15C39.1106 80.12 37.9805 79.95 36.6405 79.62C30.2005 78.05 24.7506 74.12 21.6806 68.85C18.2706 62.98 18.0805 55.66 21.2005 50.19C22.6305 47.68 24.7905 45.4 27.9905 43.02C30.2805 41.32 32.2706 40.15 34.2806 39.35C38.7406 37.56 43.1706 37.52 47.0906 39.21C52.6006 41.6 57.1506 45.88 59.5706 50.96C62.2106 56.5 62.3105 63.15 59.8305 68.34C57.1205 74.01 51.2906 78.27 44.2306 79.73C42.8606 80.01 41.6906 80.15 40.5906 80.15H40.5805ZM41.0505 39.97C39.0905 39.97 37.0605 40.38 35.0205 41.2C33.1805 41.94 31.3306 43.02 29.1806 44.62C26.2106 46.83 24.2306 48.91 22.9406 51.17C20.2106 55.96 20.4006 62.66 23.4106 67.84C26.2006 72.65 31.2005 76.23 37.1105 77.67C38.3105 77.96 39.3105 78.11 40.2405 78.14C41.3005 78.17 42.4305 78.05 43.8005 77.77C50.2505 76.43 55.5606 72.58 58.0006 67.47C60.2206 62.82 60.1205 56.82 57.7405 51.82C55.5205 47.17 51.3505 43.24 46.2705 41.04C44.6205 40.33 42.8606 39.97 41.0306 39.97H41.0505Z" fill="#17000B"/>
<path d="M51.2508 54.1599C51.5208 53.8799 51.3208 53.4199 50.9308 53.4099C48.4908 53.3899 46.1108 53.3699 43.6608 53.3499C42.8608 51.2299 41.7708 49.2199 40.6808 47.2299C40.5208 46.9299 40.3508 46.6299 40.1508 46.3499C39.6908 45.7099 38.7008 45.8299 38.4308 46.5699C37.4508 49.2299 36.5408 51.9299 35.7208 54.6399C35.0708 54.6999 34.6108 54.6799 33.9608 54.7399C32.0908 54.8999 30.2208 55.0699 28.3508 55.2299C28.2108 55.2399 28.0308 55.2899 28.0308 55.4399C28.0308 55.5199 28.1008 55.5899 28.1608 55.6499C28.4008 55.8599 28.6608 56.0599 28.9108 56.2499C30.9908 57.7999 32.6508 59.1399 35.0508 60.1199C34.0008 63.4599 33.1908 66.8499 32.6608 70.3099C32.6608 70.3399 32.6908 70.3599 32.7108 70.3399C35.3808 68.1299 37.9608 65.7999 40.4308 63.3699C43.3508 65.7899 46.3608 68.0699 49.4608 70.2699C49.4808 70.2899 49.5108 70.2699 49.5108 70.2399L45.8408 59.2899C45.8208 59.2299 45.8007 59.1399 45.8607 59.0999C45.9207 59.0599 49.4008 56.0499 51.2708 54.1599H51.2508Z" fill="#E75837"/>
<path d="M32.8108 71.5598L31.5807 70.8698L31.6808 70.1598C32.1608 67.0398 32.8808 63.8598 33.8408 60.6898C32.0108 59.8298 30.6008 58.7698 29.0008 57.5698L28.3208 57.0598C28.0408 56.8498 27.7708 56.6398 27.5108 56.4098C27.1908 56.1298 27.0308 55.7998 27.0308 55.4198C27.0408 54.8798 27.4308 54.3098 28.2708 54.2398L33.8808 53.7498C34.2208 53.7198 34.5108 53.7098 34.8108 53.6998C34.8708 53.6998 34.9208 53.6998 34.9808 53.6998C35.7508 51.1998 36.6008 48.6898 37.5108 46.2398C37.7608 45.5498 38.3807 45.0598 39.1107 44.9698C39.8407 44.8698 40.5708 45.1898 40.9908 45.7898C41.2208 46.1098 41.4107 46.4498 41.5807 46.7698C42.5607 48.5698 43.5708 50.4198 44.3708 52.3698L50.9708 52.4198C51.5508 52.4198 52.0708 52.7798 52.2908 53.3098C52.5108 53.8398 52.3908 54.4498 51.9808 54.8598C50.4908 56.3698 48.0008 58.5598 46.9608 59.4698L50.7007 70.6098L49.5408 71.5098L48.9108 71.0998C45.8808 68.9598 43.1308 66.8698 40.5008 64.7198C38.2208 66.9398 35.8207 69.0898 33.3607 71.1198L32.8208 71.5598H32.8108ZM30.3307 56.0698C32.0007 57.3198 33.4708 58.3998 35.4308 59.1998L36.2808 59.5498L36.0008 60.4298C35.2208 62.8998 34.5908 65.3898 34.1008 67.8498C36.0308 66.1798 37.9108 64.4398 39.7208 62.6598L40.3607 62.0298L41.0608 62.6098C43.1408 64.3298 45.2908 66.0098 47.5908 67.6998L44.8708 59.5998C44.6708 58.9998 44.9208 58.5398 45.2208 58.2998C45.4108 58.1398 47.7708 56.0998 49.5608 54.3998L42.9608 54.3498L42.7208 53.7098C41.9408 51.6498 40.8508 49.6498 39.8008 47.7098C39.6608 47.4498 39.5107 47.1798 39.3307 46.9298C38.3907 49.5498 37.4808 52.2498 36.6608 54.9398L36.4608 55.5898L35.7908 55.6498C35.4508 55.6798 35.1607 55.6898 34.8607 55.6998C34.6007 55.7098 34.3408 55.7198 34.0308 55.7498L30.3208 56.0798L30.3307 56.0698ZM46.5108 59.8398C46.5108 59.8398 46.4708 59.8798 46.4608 59.8798C46.4808 59.8698 46.4908 59.8498 46.5108 59.8398Z" fill="#17000B"/>
</svg>
