<svg width="80" height="80" viewBox="0 0 80 80" fill="none" xmlns="http://www.w3.org/2000/svg">
<path d="M20.8219 78.6436C15.3119 77.4236 11.1219 73.4136 9.00187 68.1836C6.32186 61.5636 7.80186 53.7136 11.8219 47.8236C15.8519 41.9336 22.1519 37.8636 28.8719 35.4736C33.3919 33.8636 38.2419 32.9436 43.0019 33.5336C51.3619 34.5836 59.5419 39.4136 64.7219 46.0636C69.9019 52.7136 71.9719 61.9936 68.9719 69.8736C68.5719 70.9236 68.0819 71.9536 67.4819 72.8936C65.2319 76.4136 61.0219 82.7336 49.3219 76.0036C35.2019 67.8836 32.6919 81.2736 20.8119 78.6436H20.8219Z" fill="#E7A937"/>
<path d="M23.9017 79.9934C22.8817 79.9934 21.7817 79.8834 20.6017 79.6134C14.9817 78.3734 10.4117 74.3334 8.07171 68.5534C5.40171 61.9534 6.52171 53.7934 11.0017 47.2534C15.8417 40.1734 23.2117 36.4234 28.5417 34.5234C33.8017 32.6534 38.7117 31.9834 43.1317 32.5334C51.6817 33.6034 60.0517 38.4334 65.5217 45.4334C71.1717 52.6734 72.8917 62.4034 69.9217 70.2134C69.4617 71.4234 68.9417 72.4734 68.3317 73.4234C66.1017 76.9034 61.4717 84.1334 48.8317 76.8634C41.2917 72.5234 37.5117 74.5934 33.1317 76.9834C30.4217 78.4634 27.6317 79.9934 23.9117 79.9934H23.9017ZM40.0417 34.3534C36.6917 34.3534 33.0517 35.0434 29.2117 36.4134C24.1617 38.2134 17.1817 41.7534 12.6517 48.3834C8.55172 54.3734 7.51171 61.8134 9.93171 67.8034C12.0217 72.9734 16.0717 76.5634 21.0417 77.6634C25.7917 78.7134 28.8917 77.0234 32.1717 75.2334C36.6717 72.7734 41.3217 70.2334 49.8317 75.1334C60.8217 81.4534 64.4717 75.7534 66.6517 72.3534C67.1817 71.5234 67.6417 70.5934 68.0517 69.5134C70.7817 62.3434 69.1717 53.3834 63.9417 46.6834C58.8717 40.1834 50.8017 35.5234 42.8817 34.5334C41.9617 34.4134 41.0117 34.3634 40.0417 34.3634V34.3534Z" fill="#17000B"/>
<path d="M3.69177 25.9736C2.43177 27.4336 1.63177 29.2936 1.22177 31.2336C0.831768 33.1036 0.871771 35.2636 2.09177 36.6636C2.40177 37.0236 2.78177 37.3136 3.17177 37.5736C5.27177 38.9736 7.86177 39.4736 10.3018 39.0136C12.7418 38.5536 15.0018 37.1636 16.6318 35.1836C17.2218 34.4736 17.7418 33.6636 18.0218 32.7636C18.2918 31.8836 18.3218 30.9436 18.2418 30.0236C18.0518 27.8036 17.1218 25.4836 15.2718 24.4436C14.6318 24.0836 13.9118 23.8936 13.2018 23.7036C9.72177 22.7936 6.25177 22.9836 3.69177 25.9736Z" fill="#E7A937"/>
<path d="M8.53169 40.1836C6.43169 40.1836 4.35168 39.5736 2.61168 38.4136C2.07168 38.0536 1.67168 37.7036 1.33168 37.3236C-0.358319 35.3736 -0.078315 32.5436 0.241685 31.0336C0.711685 28.8036 1.64168 26.8336 2.93168 25.3336C5.41168 22.4336 8.95168 21.5736 13.4517 22.7536C14.2117 22.9536 15.0017 23.1636 15.7517 23.5836C17.6917 24.6736 18.9917 27.0536 19.2317 29.9536C19.3317 31.1536 19.2417 32.1636 18.9717 33.0636C18.6917 33.9836 18.1717 34.8936 17.4017 35.8336C15.5817 38.0236 13.1317 39.5136 10.4817 40.0036C9.83168 40.1236 9.18169 40.1836 8.53169 40.1836ZM4.45168 26.6236C3.38168 27.8736 2.60168 29.5336 2.20168 31.4336C1.79168 33.3936 2.02168 35.0636 2.84168 36.0036C3.05168 36.2436 3.33168 36.4836 3.72168 36.7336C5.57168 37.9636 7.90168 38.4336 10.1117 38.0236C12.3017 37.6136 14.3417 36.3736 15.8617 34.5436C16.4617 33.8136 16.8617 33.1336 17.0617 32.4636C17.2617 31.8136 17.3217 31.0336 17.2417 30.0936C17.0517 27.8536 16.1317 26.0636 14.7717 25.3036C14.2417 25.0036 13.6117 24.8336 12.9417 24.6636C9.20168 23.6836 6.42168 24.3136 4.45168 26.6136V26.6236Z" fill="#17000B"/>
<path d="M25.9218 4.20324C22.8818 5.38324 20.1818 7.59324 18.7618 10.5332C17.3418 13.4732 17.3118 17.1232 19.0118 19.9132C19.5618 20.8132 20.2718 21.6032 21.0018 22.3432C21.7618 23.1232 22.5818 23.8732 23.5618 24.3332C25.1118 25.0732 26.8918 25.0332 28.6118 24.9532C30.1018 24.8832 31.6418 24.7732 32.9918 24.1332C34.4318 23.4432 35.5218 22.1932 36.4218 20.8832C37.6418 19.1232 38.6218 17.1432 38.9118 15.0232C39.3018 12.1732 38.3718 9.16324 36.4418 7.02324C33.9518 4.27324 29.4618 2.82324 25.9218 4.20324Z" fill="#E7A937"/>
<path d="M27.1718 25.9935C25.7718 25.9935 24.4119 25.8435 23.1419 25.2335C22.0119 24.6935 21.1018 23.8635 20.2918 23.0435C19.5918 22.3335 18.8018 21.4735 18.1618 20.4335C16.3318 17.4435 16.2218 13.4835 17.8618 10.0935C19.3218 7.09346 22.1218 4.61346 25.5618 3.27346C29.2818 1.82346 34.2818 3.15346 37.1818 6.35346C39.3218 8.71346 40.3418 12.0035 39.9018 15.1535C39.6218 17.1935 38.7318 19.3035 37.2418 21.4535C36.4618 22.5735 35.2318 24.1635 33.4219 25.0335C31.9419 25.7435 30.3218 25.8735 28.6518 25.9535C28.1518 25.9735 27.6518 25.9935 27.1618 25.9935H27.1718ZM28.8718 4.67346C27.9718 4.67346 27.0919 4.82346 26.2818 5.13346C23.3118 6.29346 20.8918 8.41346 19.6518 10.9635C18.3218 13.7035 18.4018 17.0035 19.8618 19.3835C20.3918 20.2535 21.1019 21.0135 21.7119 21.6335C22.3918 22.3235 23.1418 23.0135 23.9918 23.4235C25.3018 24.0435 26.9018 24.0235 28.5618 23.9435C30.0718 23.8735 31.4118 23.7635 32.5618 23.2135C33.6118 22.7135 34.5818 21.7835 35.6018 20.3035C36.9018 18.4235 37.6819 16.5935 37.9219 14.8735C38.2719 12.2935 37.4418 9.61346 35.7018 7.68346C33.9618 5.76346 31.3318 4.66346 28.8718 4.66346V4.67346Z" fill="#17000B"/>
<path d="M51.1212 2.92378C48.4412 4.58378 46.4112 7.24378 45.5012 10.2538C45.0912 11.6438 44.9112 13.1338 45.2912 14.5238C45.5212 15.3538 45.9412 16.1138 46.4312 16.8138C48.9912 20.4338 53.5212 22.3338 57.9512 22.4038C59.0512 22.4238 60.1612 22.3338 61.2312 22.0438C62.2312 21.7738 63.1812 21.3138 64.0412 20.7338C67.4812 18.4138 69.3512 13.9638 68.6112 9.88378C67.5712 4.17378 61.9812 0.363778 56.3312 1.08378C54.4912 1.31378 52.6912 1.94378 51.1112 2.91378L51.1212 2.92378Z" fill="#E7A937"/>
<path d="M58.2415 23.4136C58.1415 23.4136 58.0415 23.4136 57.9415 23.4136C52.8315 23.3336 48.2215 21.0836 45.6215 17.3936C44.9915 16.5036 44.5715 15.6536 44.3315 14.7936C43.9415 13.3736 44.0115 11.7536 44.5415 9.96355C45.5115 6.72355 47.7115 3.84355 50.5915 2.07355C52.2715 1.03355 54.2115 0.353553 56.2115 0.0935532C62.4915 -0.696447 68.4915 3.60355 69.6015 9.71355C70.4115 14.1636 68.3515 19.0436 64.6015 21.5736C63.6115 22.2436 62.5715 22.7236 61.5015 23.0236C60.5315 23.2936 59.4615 23.4236 58.2415 23.4236V23.4136ZM51.6415 3.77355C49.1815 5.29355 47.2915 7.76355 46.4515 10.5436C46.0315 11.9636 45.9615 13.2136 46.2515 14.2636C46.4215 14.8936 46.7515 15.5436 47.2515 16.2436C49.4515 19.3636 53.5615 21.3436 57.9715 21.4136C59.1215 21.4336 60.1015 21.3236 60.9715 21.0936C61.8315 20.8536 62.6815 20.4636 63.4815 19.9136C66.5915 17.8136 68.3015 13.7636 67.6315 10.0736C66.7115 5.00355 61.7015 1.41355 56.4615 2.08355C54.7515 2.30355 53.0815 2.88355 51.6415 3.77355Z" fill="#17000B"/>
<path d="M64.8212 26.7737C62.5812 28.5937 61.7012 31.9137 62.7512 34.6037C63.2312 35.8237 64.0512 36.8837 64.9812 37.8037C66.4112 39.2137 68.2412 40.3537 70.2512 40.4337C71.5512 40.4837 72.8212 40.0937 74.0112 39.5837C75.4312 38.9837 76.8312 38.1637 77.6712 36.8637C78.8412 35.0337 78.6112 32.5537 77.5312 30.6637C75.1512 26.5037 69.0412 23.3337 64.8212 26.7637V26.7737Z" fill="#E7A937"/>
<path d="M70.4814 41.4436C70.3914 41.4436 70.3014 41.4436 70.2114 41.4436C67.6614 41.3436 65.5814 39.7936 64.2814 38.5236C63.1114 37.3736 62.3014 36.2136 61.8214 34.9736C60.6114 31.8736 61.6015 28.1036 64.1915 26.0036C65.9715 24.5636 68.1614 24.0336 70.5314 24.4736C73.6614 25.0536 76.7514 27.2936 78.4014 30.1836C79.7614 32.5636 79.8014 35.3936 78.5114 37.4136C77.4414 39.0836 75.6514 39.9836 74.4014 40.5136C73.4414 40.9236 72.0215 41.4436 70.4715 41.4436H70.4814ZM65.4514 27.5536C63.5514 29.0936 62.8015 31.9636 63.6915 34.2436C64.0715 35.2136 64.7215 36.1436 65.6915 37.0936C66.7315 38.1236 68.3814 39.3636 70.2914 39.4436C71.2314 39.4736 72.2914 39.2336 73.6214 38.6736C75.2214 37.9936 76.2414 37.2536 76.8214 36.3336C77.7014 34.9536 77.6414 32.8836 76.6614 31.1736C75.3114 28.8136 72.7014 26.9136 70.1614 26.4436C68.9214 26.2136 67.1014 26.2136 65.4514 27.5536Z" fill="#17000B"/>
</svg>
