<svg width="80" height="80" viewBox="0 0 80 80" fill="none" xmlns="http://www.w3.org/2000/svg">
<path d="M78.0764 27.2967C78.0764 27.9467 77.7464 28.5367 77.1964 28.8767C64.4564 36.7667 51.5864 44.5867 38.8464 52.4867C38.2564 52.8467 37.5264 52.8667 36.9264 52.5067C26.2564 46.1867 13.5264 38.1367 3.41639 30.9867C2.89639 30.6167 2.6064 30.0067 2.6364 29.3667L2.66639 28.7767C2.69639 28.2967 2.8964 27.8467 3.2464 27.5167C8.8464 22.1867 14.7764 17.5267 20.9664 12.9067C21.2464 12.6967 21.5864 12.5667 21.9364 12.5367L51.5564 10.1267C51.9564 10.0967 52.3564 10.1867 52.6964 10.4067L77.1964 25.7067C77.7364 26.0467 78.0764 26.6467 78.0764 27.2867V27.2967Z" fill="#F4BAEA"/>
<path d="M37.8664 53.7666C37.3664 53.7666 36.8664 53.6366 36.4164 53.3666C24.5464 46.3366 11.9964 38.2766 2.84642 31.8066C2.03642 31.2366 1.59642 30.3066 1.64642 29.3166L1.67642 28.7366C1.71642 27.9966 2.03642 27.3166 2.56642 26.8066C8.55642 21.1166 14.9264 16.1866 20.3764 12.1166C20.8064 11.7966 21.3264 11.5966 21.8664 11.5566L51.4764 9.14664C52.0864 9.09664 52.7064 9.24664 53.2264 9.56664L77.7264 24.8666C78.5664 25.3966 79.0764 26.2966 79.0764 27.2966C79.0764 28.2966 78.5664 29.2066 77.7264 29.7266C71.3564 33.6766 64.9564 37.5966 58.5664 41.5266C52.1664 45.4566 45.7564 49.3866 39.3864 53.3366C38.9264 53.6266 38.3964 53.7666 37.8764 53.7666H37.8664ZM51.7164 11.1366C51.7164 11.1366 51.6664 11.1366 51.6464 11.1366L22.0364 13.5466C21.8764 13.5566 21.7164 13.6166 21.5864 13.7166C16.1864 17.7466 9.86642 22.6266 3.95642 28.2466C3.79642 28.3966 3.69642 28.6166 3.68642 28.8366L3.65642 29.4166C3.63642 29.7166 3.77642 29.9966 4.00642 30.1666C13.1164 36.6066 25.6164 44.6366 37.4464 51.6366C37.7164 51.7966 38.0564 51.7966 38.3264 51.6266C44.7064 47.6766 51.1064 43.7466 57.5164 39.8166C63.9164 35.8966 70.3064 31.9666 76.6764 28.0266C76.9364 27.8666 77.0864 27.5966 77.0864 27.2966C77.0864 26.9966 76.9364 26.7266 76.6864 26.5666L52.1864 11.2666C52.0464 11.1866 51.8864 11.1366 51.7264 11.1366H51.7164Z" fill="#17000B"/>
<path d="M13.1957 42.1968C13.1157 42.6068 13.0957 2.24679 13.0957 2.24679C13.0957 1.81679 13.4357 1.46679 13.8657 1.44679C31.2257 0.706792 48.6957 0.876793 66.0457 1.84679C66.4757 1.86679 66.8157 2.2368 66.8057 2.6768C66.4057 18.7868 65.8157 34.7068 65.4157 50.8168L61.2757 67.0368L13.0857 63.3268L13.1857 42.1968H13.1957Z" fill="#E7A937"/>
<path d="M62.0457 68.0867L12.0957 64.2467L12.1957 42.1866H12.2757C12.2757 42.1367 12.2657 42.0767 12.2557 42.0167C12.1557 41.0567 12.1557 39.2767 12.1457 35.9567C12.1357 32.2067 12.1257 27.2167 12.1157 22.2267C12.1057 12.2367 12.0957 2.25666 12.0957 2.25666C12.0957 1.28666 12.8557 0.496654 13.8257 0.456654C30.7957 -0.263346 48.3857 -0.133344 66.1057 0.856656C67.0857 0.906656 67.8357 1.72665 67.8057 2.70665C67.6057 10.6367 67.3557 18.6567 67.1157 26.4067C66.8657 34.3967 66.6157 42.6667 66.4157 50.8467L66.3857 51.0667L62.0457 68.0967V68.0867ZM14.1057 62.3967L60.5257 65.9667L64.4257 50.6767C64.6257 42.5267 64.8857 34.2967 65.1257 26.3367C65.3657 18.6467 65.6057 10.6967 65.8057 2.82666C48.2757 1.85666 30.8857 1.72666 14.0957 2.43666C14.0957 13.3167 14.1257 41.1266 14.1857 42.1066L13.6057 42.1367L14.1957 42.1967L14.1057 62.3967Z" fill="#17000B"/>
<path d="M77.6553 60.5467C77.8053 64.4567 78.1753 68.5467 76.5453 72.0967C74.9853 75.4867 71.6053 77.9767 67.9153 78.4367C68.0153 78.4267 31.9753 78.9867 12.9053 78.9267C9.43526 78.9167 6.13526 77.0167 4.47526 73.9667C2.81526 70.9167 2.49527 67.3367 2.30527 63.8767C1.68527 52.6567 2.12526 41.6467 2.59526 30.3967C12.7453 37.6267 25.7653 45.8767 36.6753 52.3567C37.4253 52.8067 38.3553 52.7867 39.1053 52.3267C52.0553 44.3067 65.1353 36.3567 78.0753 28.3267C78.6053 39.0367 77.2253 49.8267 77.6553 60.5367V60.5467Z" fill="#F4BAEA"/>
<path d="M16.2853 79.9367C15.0953 79.9367 13.9653 79.9367 12.9053 79.9367C9.06528 79.9267 5.40527 77.7767 3.59527 74.4567C1.83527 71.2167 1.49528 67.4867 1.30528 63.9367C0.67528 52.5367 1.14527 41.2667 1.59527 30.3667L1.67528 28.5267L3.17528 29.5967C12.3153 36.1067 25.0253 44.2967 37.1853 51.5067C37.6153 51.7567 38.1453 51.7567 38.5753 51.4867C44.8553 47.5967 51.1753 43.7167 57.4853 39.8467C64.1853 35.7367 70.8853 31.6267 77.5453 27.4867L78.9853 26.5967L79.0653 28.2867C79.3453 33.8367 79.1053 39.4667 78.8753 44.9167C78.6553 50.0367 78.4353 55.3367 78.6453 60.5067L78.6953 61.5967C78.8553 65.2767 79.0253 69.0767 77.4553 72.5167C75.7553 76.2167 72.0553 78.9267 68.0353 79.4367L66.9753 79.5667V79.4567C66.6553 79.4567 66.2653 79.4567 65.8153 79.4767C43.8953 79.7867 27.2653 79.9367 16.2853 79.9367ZM3.51528 32.2867C3.09528 42.5667 2.71528 53.1567 3.30528 63.8267C3.48528 67.1467 3.79528 70.6267 5.35528 73.4967C6.81528 76.1767 9.78527 77.9267 12.9153 77.9367C23.7153 77.9767 41.5053 77.8167 65.7953 77.4767C66.7053 77.4667 67.3453 77.4567 67.7953 77.4767V77.4567C71.1353 77.0367 74.2253 74.7667 75.6453 71.6867C77.0153 68.6867 76.8653 65.1267 76.7053 61.6867L76.6553 60.5867C76.4453 55.3367 76.6653 49.9967 76.8853 44.8267C77.0853 39.9867 77.2953 34.9867 77.1453 30.0767C70.9553 33.9067 64.7453 37.7167 58.5253 41.5367C52.2153 45.4067 45.9053 49.2767 39.6253 53.1667C38.5553 53.8267 37.2353 53.8367 36.1653 53.2067C24.6153 46.3567 12.5553 38.6267 3.51528 32.2667V32.2867Z" fill="#17000B"/>
<path d="M5.03637 75.8565C4.82637 75.8565 4.62638 75.7965 4.44638 75.6565C4.00638 75.3265 3.90638 74.7065 4.23638 74.2565C11.1564 64.8965 18.2264 55.1565 25.2364 45.3065C25.5564 44.8565 26.1764 44.7465 26.6364 45.0765C27.0864 45.3965 27.1864 46.0165 26.8664 46.4765C19.8364 56.3365 12.7664 66.0865 5.83637 75.4465C5.63637 75.7165 5.33637 75.8565 5.02637 75.8565H5.03637Z" fill="#17000B"/>
<path d="M76.2971 73.6068C76.0071 73.6068 75.7171 73.4768 75.5171 73.2368L52.1471 44.4468C51.7971 44.0168 51.8671 43.3868 52.2971 43.0368C52.7271 42.6868 53.3571 42.7568 53.7071 43.1868L77.0771 71.9768C77.4271 72.4068 77.3571 73.0368 76.9271 73.3868C76.7371 73.5368 76.5171 73.6068 76.2971 73.6068Z" fill="#17000B"/>
<path d="M31.6653 14.6666C31.1353 15.1966 30.6953 15.8666 30.6053 16.6066C30.5153 17.3966 30.8053 18.1766 31.2053 18.8666C31.4753 19.3266 31.7953 19.7566 32.2153 20.0866C33.2253 20.8866 34.6753 20.9466 35.9053 20.5366C36.3553 20.3866 36.7953 20.1766 37.1753 19.8766C38.3153 18.9966 38.7753 17.3466 38.2753 15.9966C37.3153 13.4266 33.5353 12.7966 31.6753 14.6566L31.6653 14.6666Z" fill="#F4BAEA"/>
<path d="M34.4154 21.7867C33.3554 21.7867 32.3554 21.4767 31.5854 20.8667C31.1254 20.4967 30.7154 20.0067 30.3354 19.3667C29.7454 18.3467 29.4954 17.3767 29.6054 16.4867C29.7154 15.5967 30.1754 14.7167 30.9454 13.9567C32.0954 12.8167 33.8854 12.3467 35.6254 12.7267C37.3054 13.0967 38.6354 14.1867 39.1854 15.6567C39.8454 17.4167 39.2454 19.5267 37.7654 20.6767C37.3254 21.0167 36.8054 21.2967 36.1954 21.4967C35.5954 21.6967 34.9854 21.7967 34.3954 21.7967L34.4154 21.7867ZM34.4254 14.5867C33.6154 14.5867 32.8654 14.8667 32.3654 15.3667C32.0554 15.6767 31.6654 16.1667 31.5954 16.7167C31.5454 17.1767 31.6954 17.7267 32.0654 18.3467C32.3154 18.7667 32.5654 19.0767 32.8254 19.2867C33.6154 19.9167 34.7654 19.8467 35.5754 19.5767C35.9654 19.4467 36.2854 19.2767 36.5454 19.0767C37.3454 18.4567 37.6754 17.2767 37.3254 16.3367C37.0154 15.5067 36.2254 14.8767 35.2054 14.6567C34.9454 14.5967 34.6854 14.5767 34.4254 14.5767V14.5867Z" fill="#17000B"/>
<path d="M46.6767 13.5669C45.7267 14.3169 45.1567 15.4769 44.9867 16.6769C44.8667 17.5269 44.9467 18.4669 45.5067 19.1169C45.7067 19.3469 45.9567 19.5369 46.2267 19.6969C47.6967 20.5869 49.6967 20.6769 51.0967 19.6969C52.1667 18.9469 52.7967 17.6069 52.6967 16.3069C52.4667 13.2969 49.0667 11.6969 46.6767 13.5869V13.5669Z" fill="#F4BAEA"/>
<path d="M48.7367 21.3967C47.7067 21.3967 46.6467 21.1167 45.7167 20.5467C45.3067 20.2967 45.0067 20.0467 44.7567 19.7667C44.0867 18.9767 43.8167 17.8367 44.0067 16.5367C44.2267 15.0167 44.9767 13.6467 46.0667 12.7867C47.4567 11.6867 49.2467 11.4467 50.8467 12.1567C52.4667 12.8667 53.5667 14.4267 53.7067 16.2267C53.8367 17.8767 53.0367 19.5567 51.6867 20.5167C50.8367 21.1167 49.8067 21.4167 48.7467 21.4167L48.7367 21.3967ZM48.9767 13.7567C48.3867 13.7567 47.7967 13.9567 47.3067 14.3567C46.6167 14.9067 46.1367 15.7967 45.9867 16.8267C45.8867 17.5367 45.9867 18.1367 46.2767 18.4667C46.3867 18.5867 46.5367 18.7067 46.7567 18.8467C47.9667 19.5767 49.5167 19.5867 50.5267 18.8767C51.3067 18.3267 51.7767 17.3267 51.7067 16.3767C51.6267 15.3067 51.0067 14.4167 50.0467 13.9867C49.7067 13.8367 49.3367 13.7567 48.9867 13.7567H48.9767Z" fill="#17000B"/>
<path d="M40.1763 34.287C39.8163 34.287 39.4663 34.267 39.1063 34.237C37.5163 34.097 35.8763 33.657 33.9463 32.857C31.0563 31.647 25.9863 28.847 24.4663 23.637C24.3163 23.107 24.6163 22.547 25.1463 22.397C25.6763 22.247 26.2363 22.547 26.3863 23.077C27.6763 27.487 32.1563 29.947 34.7163 31.017C36.4463 31.737 37.8963 32.137 39.2763 32.257C41.9863 32.487 44.8463 31.647 47.3263 29.887C49.5263 28.317 51.4463 25.997 52.8663 23.177C53.1163 22.687 53.7163 22.487 54.2063 22.737C54.6963 22.987 54.8963 23.587 54.6463 24.077C53.0763 27.187 50.9463 29.757 48.4763 31.507C45.9363 33.317 43.0163 34.287 40.1663 34.287H40.1763Z" fill="#17000B"/>
</svg>
