<svg width="80" height="81" viewBox="0 0 80 81" fill="none" xmlns="http://www.w3.org/2000/svg">
<path d="M55.7351 65.2156C55.3351 65.2156 54.9551 64.9756 54.8051 64.5756C54.6051 64.0656 54.8551 63.4856 55.3751 63.2756C61.8751 60.7256 66.9051 54.7156 68.1951 47.9656C68.2951 47.4256 68.8251 47.0656 69.3651 47.1656C69.9051 47.2656 70.2651 47.7956 70.1651 48.3356C68.7551 55.7456 63.2351 62.3356 56.1151 65.1356C55.9951 65.1856 55.8751 65.2056 55.7551 65.2056L55.7351 65.2156Z" fill="#17000B"/>
<path d="M38.7164 65.9457C38.6264 65.9157 38.4464 65.8357 38.3664 65.7857C37.9064 65.4757 37.7864 64.8557 38.0864 64.3957C38.3964 63.9357 39.0164 63.8157 39.4764 64.1157L39.1264 64.6357L38.7164 65.9357V65.9457Z" fill="#17000B"/>
<path d="M55.7359 64.2158C54.9659 64.5258 54.1659 64.7858 53.3659 64.9858C50.4159 65.7458 47.3359 65.8658 44.2859 65.8558C42.5559 65.8458 40.7759 65.7858 39.2159 65.0758C39.1159 65.0358 39.0659 64.9158 39.1059 64.8158C39.6259 63.4958 40.3559 62.2658 41.3259 61.2158C43.3259 59.0358 46.4359 57.7558 49.3159 58.4358C51.5359 58.9658 53.3859 60.5558 54.6859 62.4158C55.0859 62.9858 55.4359 63.5858 55.7459 64.2058L55.7359 64.2158Z" fill="#DBD1C1"/>
<path d="M44.6559 66.8557C44.5259 66.8557 44.4059 66.8557 44.2759 66.8557C42.3759 66.8457 40.5259 66.7657 38.7959 65.9957C38.2059 65.7357 37.9259 65.0557 38.1659 64.4457C38.7659 62.9457 39.5759 61.6257 40.5759 60.5357C42.9459 57.9457 46.4659 56.7357 49.5259 57.4557C51.7759 57.9857 53.8859 59.5457 55.4859 61.8457C55.9059 62.4457 56.2859 63.0857 56.6259 63.7657L57.1059 64.7357L56.1059 65.1457C55.2959 65.4657 54.4559 65.7457 53.6059 65.9557C50.6059 66.7257 47.5359 66.8557 44.6559 66.8557ZM40.3559 64.4357C41.5559 64.7957 42.9059 64.8457 44.2859 64.8457C47.1459 64.8457 50.1959 64.7657 53.1159 64.0057C53.5159 63.9057 53.9159 63.7857 54.2959 63.6657C54.1559 63.4357 54.0059 63.2057 53.8559 62.9857C52.5359 61.0957 50.8459 59.8157 49.0759 59.4057C46.7059 58.8457 43.9459 59.8257 42.0559 61.8857C41.3859 62.6157 40.8159 63.4657 40.3559 64.4357Z" fill="#17000B"/>
<path d="M21.766 55.5154C22.046 56.2254 21.616 57.0154 20.866 57.1654C19.486 57.4454 18.096 57.6254 16.686 57.6654C12.336 57.7754 8.11597 55.9554 5.03597 52.8854C-3.29402 44.5554 1.85597 30.3254 15.126 26.8154C14.856 30.0454 15.066 33.3454 15.596 36.5354C16.606 42.5154 19.376 49.5754 21.756 55.5154H21.766Z" fill="#94ABD6"/>
<path d="M16.326 58.6656C11.936 58.6656 7.58596 56.8256 4.33596 53.5956C0.505961 49.7656 -0.874048 44.5356 0.545952 39.2456C2.26595 32.8656 7.75597 27.7356 14.876 25.8556L16.246 25.4956L16.126 26.9056C15.876 29.8956 16.036 33.0856 16.586 36.3756C17.536 42.0056 20.016 48.4756 22.686 55.1556C22.936 55.7656 22.896 56.4456 22.576 57.0256C22.266 57.6056 21.706 58.0256 21.056 58.1556C19.546 58.4656 18.086 58.6356 16.706 58.6756C16.576 58.6756 16.446 58.6756 16.316 58.6756L16.326 58.6656ZM14.046 28.1856C8.27595 30.1356 3.90598 34.4756 2.47598 39.7556C1.24598 44.3356 2.43596 48.8656 5.74596 52.1756C8.70597 55.1256 12.686 56.7456 16.666 56.6656C17.936 56.6356 19.276 56.4756 20.666 56.1856C20.766 56.1656 20.806 56.1056 20.826 56.0656C20.846 56.0256 20.866 55.9556 20.836 55.8856C18.116 49.1056 15.606 42.5256 14.616 36.6956C14.126 33.7656 13.926 30.9056 14.046 28.1856Z" fill="#17000B"/>
<path d="M78.946 39.8556C78.836 42.8856 78.166 45.9256 76.676 48.5656C75.196 51.1956 72.876 53.4156 70.046 54.4956C67.726 55.3756 65.156 55.4656 62.706 55.0956C61.546 54.9256 60.416 54.6656 59.296 54.3556C59.156 54.3156 59.086 54.1756 59.136 54.0356C61.936 47.4456 66.706 35.5356 66.376 24.7056C70.126 25.7856 73.556 27.9656 76.086 30.9456C76.816 31.8056 77.486 32.7256 77.956 33.7456C78.826 35.6356 79.026 37.7756 78.946 39.8556Z" fill="#94ABD6"/>
<path d="M65.376 56.3057C64.476 56.3057 63.536 56.2357 62.566 56.0857C61.486 55.9257 60.326 55.6757 59.036 55.3157C58.686 55.2157 58.406 54.9857 58.246 54.6557C58.096 54.3357 58.086 53.9657 58.226 53.6457C60.276 48.8057 65.726 35.9657 65.386 24.7357L65.346 23.3657L66.666 23.7457C70.626 24.8957 74.246 27.2157 76.856 30.2957C77.766 31.3657 78.406 32.3357 78.866 33.3257C79.696 35.1357 80.056 37.2857 79.946 39.8957C79.826 43.3657 79.016 46.4457 77.556 49.0557C75.866 52.0557 73.326 54.3157 70.416 55.4257C68.886 56.0057 67.206 56.2957 65.376 56.2957V56.3057ZM60.406 53.6157C61.286 53.8357 62.076 53.9957 62.856 54.1057C65.436 54.4857 67.736 54.3057 69.696 53.5557C72.176 52.6157 74.346 50.6657 75.806 48.0757C77.116 45.7457 77.836 42.9657 77.946 39.8257C78.036 37.5357 77.746 35.6857 77.046 34.1657C76.666 33.3457 76.116 32.5257 75.326 31.5957C73.256 29.1457 70.476 27.2257 67.396 26.0957C67.296 36.7857 62.616 48.3857 60.406 53.6157Z" fill="#17000B"/>
<path d="M23.7346 67.0454C23.2446 67.0454 22.8146 66.6754 22.7446 66.1754C22.6746 65.6254 23.0546 65.1254 23.6046 65.0554L31.5646 64.0054C32.1046 63.9354 32.6146 64.3154 32.6846 64.8654C32.7546 65.4154 32.3746 65.9154 31.8246 65.9854L23.8646 67.0354C23.8646 67.0354 23.7746 67.0354 23.7346 67.0354V67.0454Z" fill="#17000B"/>
<path d="M26.7464 78.1858C26.4764 78.1858 26.1964 78.0758 25.9964 77.8558C25.6264 77.4458 25.6664 76.8158 26.0764 76.4458L35.3464 68.1458C35.7564 67.7758 36.3864 67.8158 36.7564 68.2258C37.1264 68.6358 37.0864 69.2658 36.6764 69.6358L27.4064 77.9358C27.2164 78.1058 26.9764 78.1858 26.7364 78.1858H26.7464Z" fill="#17000B"/>
<path d="M40.5964 80.0157C40.5964 80.0157 40.5764 80.0157 40.5664 80.0157C40.0164 79.9957 39.5764 79.5357 39.5964 78.9857C39.6964 75.6257 39.7063 73.7957 39.6463 70.4357C39.6463 69.8857 40.0764 69.4257 40.6264 69.4157C41.1364 69.3957 41.6363 69.8457 41.6463 70.3957C41.7063 73.7857 41.6964 75.6457 41.5964 79.0357C41.5764 79.5757 41.1364 80.0057 40.5964 80.0057V80.0157Z" fill="#17000B"/>
<path d="M15.1355 27.8155C15.1355 27.8155 15.0855 27.8155 15.0555 27.8155C14.5055 27.7755 14.0955 27.2855 14.1355 26.7355C14.4555 22.8155 15.4255 19.2355 17.0155 16.0955C20.7055 8.81555 27.8555 2.74556 34.8255 0.985556C42.6955 -0.994444 50.8155 0.0355544 57.0855 3.83555C63.4455 7.68555 67.1055 15.0856 67.3755 24.6856C67.3955 25.2356 66.9555 25.6956 66.4055 25.7156C65.8555 25.7356 65.3955 25.2956 65.3755 24.7456C65.2255 19.5956 63.8155 10.2556 56.0455 5.55556C50.3155 2.08556 42.5655 1.10555 35.3055 2.93555C28.8655 4.56555 22.2355 10.2255 18.7955 17.0155C17.3255 19.9255 16.4255 23.2456 16.1255 26.9156C16.0855 27.4356 15.6455 27.8356 15.1255 27.8356L15.1355 27.8155Z" fill="#17000B"/>
</svg>
