<svg xmlns="http://www.w3.org/2000/svg" width="54" height="37" viewBox="0 0 54 37" fill="none">
  <path d="M23.1344 3.8389C23.1429 3.99125 23.1513 4.16818 23.1585 4.36771C23.1864 5.13523 23.1972 6.23568 23.128 7.55768C22.9894 10.2062 22.5308 13.7209 21.2608 17.2232C19.9915 20.7233 17.9217 24.1849 14.5745 26.7725C11.3551 29.2613 6.90179 30.9823 0.719864 31.1032C0.72016 30.904 0.724328 30.6659 0.735888 30.3955C0.773085 29.5254 0.886462 28.3294 1.1896 27.0249C1.79915 24.4016 3.14965 21.441 6.07931 19.719C9.73086 17.5765 11.4357 14.3219 12.9516 11.4281C13.2834 10.7947 13.6062 10.1787 13.9383 9.59531C14.8807 7.93983 15.8972 6.51881 17.3758 5.49983C18.7299 4.56658 20.5305 3.93122 23.1344 3.8389Z" fill="#FBF8F3" stroke="#FBF8F3" stroke-width="1.43969"/>
  <path d="M52.7763 30.3955C52.7879 30.6659 52.792 30.904 52.7923 31.1032C46.6104 30.9823 42.1571 29.2613 38.9377 26.7725C35.5905 24.1849 33.5207 20.7233 32.2514 17.2232C30.9814 13.7209 30.5228 10.2062 30.3842 7.55768C30.315 6.23568 30.3258 5.13523 30.3537 4.36771C30.3609 4.16818 30.3693 3.99125 30.3777 3.83889C32.9817 3.93122 34.7823 4.56658 36.1364 5.49983C37.6149 6.51881 38.6315 7.93983 39.5739 9.59531C39.906 10.1787 40.2288 10.7947 40.5605 11.4281C42.0764 14.3219 43.7813 17.5765 47.4329 19.719C50.3625 21.441 51.713 24.4016 52.3226 27.0249C52.6257 28.3294 52.7391 29.5254 52.7763 30.3955Z" fill="#FBF8F3" stroke="#FBF8F3" stroke-width="1.43969"/>
  <path d="M14.9956 2.19398C16.1805 3.74666 16.6127 6.66709 14.8347 10.8532L14.643 10.9564C10.1592 10.1747 7.94241 8.22426 7.28384 6.38564C6.62909 4.55764 7.41161 2.55111 9.55999 1.3832C11.7082 0.215376 13.8172 0.649977 14.9956 2.19398Z" fill="#FBF8F3" stroke="#FBF8F3" stroke-width="1.43969"/>
  <path d="M46.2274 6.38564C45.5688 8.22427 43.3521 10.1747 38.8682 10.9564L38.6765 10.8532C36.8981 6.66643 37.3268 3.74597 38.5099 2.19359C39.6857 0.650786 41.7942 0.214744 43.9517 1.38342C46.0997 2.55137 46.8821 4.55776 46.2274 6.38564Z" fill="#FBF8F3" stroke="#FBF8F3" stroke-width="1.43969"/>
  <path d="M21.4138 28.2416L21.4138 28.2416L21.4229 28.238C22.31 27.8863 24.2976 27.2238 26.7729 27.2238C29.241 27.2238 31.2232 27.8825 32.1253 28.2486C32.174 28.2704 32.2089 28.3019 32.2287 28.3305C32.2474 28.3573 32.2507 28.3775 32.2501 28.3928L32.2495 28.4048L32.2494 28.4168C32.2348 29.8681 31.7321 33.8464 26.8972 36.1659L26.8972 36.1658L26.8867 36.1711C26.8243 36.2023 26.7483 36.1925 26.7244 36.1798L26.5656 36.0951H26.5357C21.8103 33.7534 21.3282 29.8317 21.3126 28.4055C21.3136 28.32 21.3677 28.2591 21.4138 28.2416Z" fill="#FBF8F3" stroke="#FBF8F3" stroke-width="1.43969"/>
</svg>