<svg width="80" height="80" viewBox="0 0 80 80" fill="none" xmlns="http://www.w3.org/2000/svg">
<path d="M56.4603 33.7936C54.6503 36.0436 52.1303 37.6636 49.4503 38.7536C46.5203 39.9336 43.3103 40.5336 40.1503 40.2136C36.9903 39.8936 33.9103 38.6236 31.6103 36.4336C30.3603 35.2636 29.3603 33.8436 28.4303 32.3936C26.5003 29.3636 24.8203 25.9636 24.9203 22.3636C24.9203 22.2636 24.9303 22.1636 24.9303 22.0636C25.1003 18.9936 26.5803 16.1036 28.5603 13.7336C29.8603 12.1636 31.9503 10.5336 34.4403 9.2636C37.6303 7.6436 41.4503 6.64359 45.0603 7.17359C46.4903 7.38359 47.7203 7.70359 48.9303 8.27359C49.4703 8.52359 50.0103 8.8136 50.5603 9.1836C54.5403 11.7736 57.7403 15.7136 59.0003 20.2836C59.0703 20.5636 59.1503 20.8336 59.2003 21.1136C60.1603 25.4836 59.2603 30.3036 56.4603 33.7836V33.7936Z" fill="#E7A937"/>
<path d="M41.8503 41.2934C41.2403 41.2934 40.6403 41.2634 40.0503 41.2034C36.5303 40.8434 33.2903 39.4134 30.9203 37.1534C29.5303 35.8434 28.4603 34.2834 27.5903 32.9234C25.8203 30.1534 23.8103 26.4434 23.9203 22.3334C23.9203 22.2934 23.9203 22.2234 23.9203 22.1534V22.0034C24.1403 18.2034 26.1403 15.0634 27.7803 13.0834C29.2103 11.3634 31.4603 9.6434 33.9703 8.3634C37.7503 6.4434 41.7303 5.6634 45.1903 6.1734C46.8303 6.4134 48.1103 6.7834 49.3403 7.3534C49.9103 7.6134 50.4903 7.9334 51.1003 8.3334C55.4703 11.1834 58.7003 15.4334 59.9503 20.0134C60.0303 20.3234 60.1103 20.6234 60.1703 20.9234C61.2303 25.7534 60.1303 30.8034 57.2303 34.4134C55.4703 36.6034 52.9103 38.4134 49.8203 39.6734C47.1703 40.7434 44.4403 41.2934 41.8403 41.2934H41.8503ZM43.0603 8.0334C40.4703 8.0334 37.6303 8.76339 34.8903 10.1634C32.6203 11.3234 30.5903 12.8634 29.3303 14.3834C27.8803 16.1234 26.1103 18.8834 25.9303 22.1334C25.9303 22.1334 25.9303 22.2134 25.9303 22.2834V22.4034C25.8303 25.9734 27.6703 29.3334 29.2803 31.8634C30.0803 33.1134 31.0703 34.5534 32.3003 35.7134C34.3603 37.6634 37.1803 38.9134 40.2603 39.2234C43.0703 39.5034 46.1203 39.0234 49.0903 37.8334C51.8603 36.7034 54.1503 35.0934 55.6903 33.1734C58.2203 30.0334 59.1703 25.6134 58.2303 21.3434C58.1803 21.0634 58.1103 20.8134 58.0403 20.5534C56.9103 16.4534 53.9903 12.6134 50.0203 10.0234C49.5003 9.68339 49.0103 9.4134 48.5203 9.1934C47.4603 8.7034 46.3503 8.3834 44.9103 8.1734C44.3103 8.0834 43.6903 8.0434 43.0603 8.0434V8.0334Z" fill="#17000B"/>
<path d="M76.8601 77.9037C77.2301 77.9037 77.5301 77.5937 77.5201 77.2137C77.4401 75.3337 77.1502 73.4637 76.6602 71.6437C76.0502 69.3937 75.1402 67.2437 74.0402 65.1837C68.7702 55.3037 58.0502 45.3438 41.1902 45.3438C32.0202 45.3438 23.2201 49.9337 16.2401 55.8737C9.40015 61.7037 4.37015 69.6237 2.01015 78.2937C1.94015 78.5537 2.14015 78.8237 2.42015 78.8138C16.9902 78.5438 31.5901 78.7237 46.1601 78.9737C49.4601 79.0337 72.3102 77.9037 76.8701 77.8837L76.8601 77.9037Z" fill="#E7A937"/>
<path d="M46.4302 79.9935C46.3202 79.9935 46.2202 79.9935 46.1402 79.9935C29.8602 79.7135 16.2002 79.5735 2.44017 79.8335C2.00017 79.8535 1.57016 79.6335 1.30016 79.2835C1.03016 78.9335 0.930155 78.4735 1.05016 78.0435C3.46016 69.1935 8.63016 61.0535 15.6002 55.1235C23.7502 48.1835 32.8502 44.3535 41.2002 44.3535C61.8302 44.3535 71.6502 58.5935 74.9202 64.7235C76.1301 66.9835 77.0402 69.2335 77.6202 71.3935C78.1302 73.2735 78.4302 75.2235 78.5102 77.1735C78.5302 77.6235 78.3602 78.0635 78.0502 78.3835C77.7402 78.7135 77.3002 78.8935 76.8602 78.9035C74.6802 78.9135 68.1202 79.1835 61.7902 79.4435C54.9902 79.7235 48.5402 79.9935 46.4302 79.9935ZM17.8102 77.6935C26.6802 77.6935 35.9002 77.8135 46.1702 77.9935C47.8602 78.0235 54.8902 77.7335 61.7102 77.4535C67.7602 77.2035 74.0002 76.9435 76.5002 76.9135C76.4002 75.2235 76.1302 73.5435 75.6902 71.9235C75.1402 69.9035 74.2902 67.8035 73.1602 65.6735C70.0602 59.8635 60.7502 46.3635 41.2102 46.3635C33.3302 46.3635 24.7002 50.0235 16.9002 56.6535C10.4302 62.1635 5.59016 69.6535 3.20016 77.8235C8.04016 77.7435 12.8802 77.7035 17.8302 77.7035L17.8102 77.6935Z" fill="#17000B"/>
<path d="M34.4306 9.26311C31.9406 10.5331 29.8505 12.1631 28.5505 13.7331C26.5805 16.1031 25.0906 18.9931 24.9206 22.0631C22.3906 21.1231 19.9806 19.8631 18.0906 17.9531C15.5106 15.3431 14.1205 11.2631 15.5505 7.8831C16.0005 6.8131 16.6906 5.87311 17.4406 4.99311C18.7606 3.45311 20.3305 2.05311 22.2705 1.47311C25.3505 0.553109 28.7406 1.98311 31.0106 4.25311C32.4406 5.70311 33.5106 7.43311 34.4206 9.25311L34.4306 9.26311Z" fill="#E75837"/>
<path d="M25.8505 23.4732L24.5806 23.0032C21.5006 21.8632 19.1505 20.4432 17.3905 18.6632C14.7905 16.0232 12.9305 11.5532 14.6405 7.50324C15.1805 6.23324 16.0105 5.15324 16.6805 4.35324C18.4605 2.28324 20.1505 1.06324 21.9905 0.523241C25.1305 -0.406759 28.9506 0.783242 31.7206 3.56324C33.0506 4.91324 34.1905 6.58324 35.3205 8.82324L35.7705 9.71324L34.8805 10.1632C32.6105 11.3232 30.5805 12.8632 29.3205 14.3832C27.8705 16.1232 26.1005 18.8832 25.9205 22.1332L25.8405 23.4832L25.8505 23.4732ZM24.2305 2.20324C23.6605 2.20324 23.0905 2.28325 22.5605 2.44325C21.1005 2.87325 19.7205 3.89325 18.2005 5.65325C17.6305 6.33325 16.9105 7.25324 16.4805 8.28324C15.3305 11.0132 16.2805 14.7032 18.8105 17.2632C20.1305 18.5932 21.8605 19.7132 24.0806 20.6632C24.6206 17.4732 26.3405 14.8332 27.7805 13.1032C29.0305 11.5932 30.9306 10.0732 33.0806 8.86325C32.2006 7.24325 31.3005 5.99325 30.3005 4.97325C28.5405 3.20325 26.3005 2.21324 24.2305 2.21324V2.20324Z" fill="#17000B"/>
<path d="M67.8619 11.8632C67.7619 13.2932 67.3919 14.7332 66.6119 15.9232C65.8019 17.1732 64.5819 18.1032 63.3419 18.9032C62.0319 19.7532 60.642 20.4932 59.202 21.1232C59.1519 20.8432 59.072 20.5732 59.002 20.2932C57.742 15.7132 54.542 11.7832 50.562 9.19318C50.012 8.83318 49.4719 8.53318 48.9319 8.28318C49.1919 7.84318 49.4419 7.41318 49.7119 6.98318C50.9419 5.04318 52.372 3.13318 54.362 2.02318C57.342 0.363178 61.2619 0.793185 63.9619 2.87318C66.6619 4.95318 68.0819 8.47318 67.8619 11.8632Z" fill="#E75837"/>
<path d="M58.4619 22.5334L58.222 21.3034C58.172 21.0534 58.102 20.7934 58.032 20.5434C56.902 16.4434 53.9819 12.6034 50.0119 10.0134C49.4919 9.67341 49.0019 9.40341 48.5119 9.1834L47.502 8.72341L48.062 7.76341C48.332 7.30341 48.5919 6.8634 48.8519 6.4334C50.0619 4.5134 51.602 2.3834 53.862 1.1334C57.102 -0.676598 61.492 -0.286596 64.562 2.0734C67.452 4.3034 69.092 8.0734 68.852 11.9234C68.732 13.6634 68.252 15.2334 67.442 16.4734C66.472 17.9634 65.0219 19.0034 63.8719 19.7434C62.5619 20.5934 61.1119 21.3734 59.5919 22.0334L58.442 22.5334H58.4619ZM50.3419 7.8634C50.5919 8.0134 50.8519 8.1634 51.1219 8.3434C55.3919 11.1234 58.5719 15.2534 59.8819 19.7034C60.9119 19.2034 61.8919 18.6534 62.8019 18.0534C63.7919 17.4134 65.022 16.5434 65.782 15.3734C66.402 14.4234 66.7719 13.1834 66.8719 11.7834C67.0719 8.5934 65.722 5.47341 63.352 3.65341C60.902 1.76341 57.4119 1.4534 54.8519 2.8834C52.9819 3.9234 51.632 5.8034 50.562 7.5034C50.492 7.6234 50.4119 7.7434 50.3419 7.8634Z" fill="#17000B"/>
<path d="M22.551 16.8034C22.341 16.8034 22.121 16.7334 21.941 16.5934C20.631 15.5834 19.671 13.9534 19.251 12.0134C18.971 10.6934 18.971 9.47344 19.251 8.40344C19.611 7.05344 20.451 5.92344 21.541 5.29344C22.831 4.55344 24.511 4.48344 26.171 5.09344C27.541 5.59344 28.721 6.47344 29.751 7.25344C30.191 7.58344 30.281 8.21344 29.951 8.65344C29.621 9.09344 28.991 9.18344 28.551 8.85344C27.581 8.12344 26.571 7.37344 25.471 6.96344C24.391 6.56344 23.291 6.59344 22.531 7.02344C21.891 7.38344 21.401 8.07344 21.181 8.91344C20.971 9.68344 20.981 10.5834 21.191 11.5834C21.511 13.0634 22.201 14.2834 23.141 15.0034C23.581 15.3434 23.661 15.9634 23.321 16.4034C23.121 16.6634 22.831 16.7934 22.531 16.7934L22.551 16.8034Z" fill="#17000B"/>
<path d="M60.5818 15.6735C60.5318 15.6735 60.4818 15.6735 60.4418 15.6535L59.6418 15.4635L59.6718 14.6435C59.6818 14.2635 59.9118 13.9335 60.2318 13.7835C60.7018 13.4135 62.2518 11.9135 62.7118 10.9235C63.1818 9.89347 63.2118 8.39347 62.3418 7.64347C62.0818 7.42347 61.7418 7.24347 61.2818 7.10347C59.1218 6.43347 56.5418 7.35347 55.2818 9.23347C54.9718 9.69347 54.3518 9.81347 53.8918 9.51347C53.4318 9.20347 53.3118 8.58347 53.6118 8.12347C55.3718 5.48347 58.8418 4.25347 61.8618 5.19347C62.5918 5.42347 63.1718 5.73347 63.6518 6.13347C65.3518 7.61347 65.2918 10.0835 64.5218 11.7635C64.2118 12.4435 61.8118 15.6835 60.5718 15.6835L60.5818 15.6735Z" fill="#17000B"/>
<path d="M42.7919 31.0634C38.3019 31.0634 33.9819 27.8134 32.7319 23.5034C32.5819 22.9734 32.8819 22.4234 33.4119 22.2634C33.9419 22.1034 34.4919 22.4134 34.6519 22.9434C35.6619 26.4334 39.1619 29.0634 42.7919 29.0634C46.4219 29.0634 49.9219 26.4334 50.9319 22.9534C51.0819 22.4234 51.6419 22.1134 52.1719 22.2734C52.702 22.4234 53.0119 22.9834 52.8519 23.5134C51.6019 27.8234 47.2819 31.0734 42.7919 31.0734V31.0634Z" fill="#17000B"/>
</svg>
